<?xml version="1.0" encoding="utf-8"?>
<!-- Generator: Adobe Illustrator 24.0.2, SVG Export Plug-In . SVG Version: 6.00 Build 0)  -->
<svg version="1.1" id="Capa_1" xmlns="http://www.w3.org/2000/svg" xmlns:xlink="http://www.w3.org/1999/xlink" x="0px" y="0px"
	 viewBox="0 0 1080 1920" style="enable-background:new 0 0 1080 1920;" xml:space="preserve">
<style type="text/css">
	.st0{fill:#0051F1;}
	.st1{fill:#FE1619;}
	.st2{fill:#019BFE;}
	.st3{fill:#0040BA;}
	.st4{fill:#009BFD;}
	.st5{fill:#010001;}
	.st6{fill:#FEFEFE;}
	.st7{fill:#009AFE;}
	.st8{fill:#013FBA;}
	.st9{fill:#030304;}
	.st10{fill:#030303;}
	.st11{fill:#030405;}
	.st12{fill:#040306;}
	.st13{fill:#030404;}
	.st14{fill:#060607;}
	.st15{fill:#050506;}
	.st16{fill:#040407;}
	.st17{fill:#040408;}
	.st18{fill:#0299FB;}
	.st19{fill:#050716;}
	.st20{fill:#040510;}
	.st21{fill:#111323;}
	.st22{fill:#19419C;}
	.st23{fill:#061858;}
	.st24{fill:#072779;}
	.st25{fill:#08287A;}
	.st26{fill:#0B2F85;}
	.st27{fill:#0A2F85;}
	.st28{fill:#0C287C;}
	.st29{fill:#6A93D9;}
	.st30{fill:#0C2D83;}
	.st31{fill:#0A2881;}
	.st32{fill:#082573;}
	.st33{fill:#0B2673;}
	.st34{fill:#08318A;}
	.st35{fill:#082674;}
	.st36{fill:#072879;}
	.st37{fill:#07297B;}
	.st38{fill:#07236D;}
	.st39{fill:#072475;}
	.st40{fill:#093794;}
	.st41{fill:#0A338C;}
	.st42{fill:#0B2F89;}
	.st43{fill:#0C2E86;}
	.st44{fill:#0B2772;}
	.st45{fill:#092577;}
	.st46{fill:#062971;}
	.st47{fill:#072679;}
	.st48{fill:#0A297C;}
	.st49{fill:#0A206E;}
	.st50{fill:#040405;}
	.st51{fill:#135685;}
	.st52{fill:#808080;}
	.st53{fill:#0A4DDA;}
	.st54{fill:#0E5482;}
	.st55{fill:#0250F0;}
	.st56{fill:#0240BB;}
	.st57{fill:#0440B8;}
	.st58{fill:#06070A;}
	.st59{fill:#060708;}
	.st60{fill:#1348B4;}
	.st61{fill:#19274B;}
	.st62{fill:#142C6A;}
	.st63{fill:#172D6A;}
	.st64{fill:#162551;}
	.st65{fill:#050406;}
	.st66{fill:#0450EA;}
	.st67{fill:#040506;}
	.st68{fill:#0551ED;}
</style>
<g>
	<g>
		<path class="st0" d="M180.08,1409.9c-28.83,0-57.65-0.06-86.48,0.09c-2.98,0.01-3.59-0.6-3.58-3.58
			c0.11-68.15,0.08-136.3,0.08-204.46c2.09-1.83,4.66-1.55,7.13-1.56c10.81-0.04,21.63,0.02,32.44-0.03
			c6.94-0.03,7.37-0.62,7.07-7.44c-0.23-5.3-0.33-10.63,2.46-15.47c2.12-1.29,4.49-1.1,6.81-1.14c5-0.09,9.99,0.07,14.99-0.1
			c3.43-0.12,5.16-1.85,5.32-5.28c0.09-2,0.11-4,0.11-5.99c0-142.74,0-285.48,0-428.22c0-10.98-0.01-10.99-11.24-10.99
			c-18.99,0-37.98,0.02-56.96-0.02c-2.79-0.01-5.72,0.43-8.12-1.64c0-69.82,0.03-139.64-0.1-209.45c-0.01-3.75,0.85-4.59,4.59-4.59
			c237.11,0.1,474.23,0.09,711.34,0.09c2.07,2.39,1.64,5.32,1.64,8.11c0.04,20.13,0,40.27,0.03,60.4c0.01,7.48,0.3,7.79,7.94,7.79
			c55.08,0.03,110.16,0,165.24,0.04c3.1,0,6.39-0.63,9.11,1.64c0,6.33,0,12.66,0,19c-0.96,0.77-2.08,0.97-3.28,0.94
			c-17.63-0.32-35.28,0.34-52.89,0.19c-18.62-0.16-37.27-0.12-55.9-0.49c-7.99-0.16-15.96,0.55-23.93,0.8
			c-12.29,0.4-24.58-1.22-36.91-0.87c-9.41,0.27-9.31,0.06-9.44,9.67c-0.22,16.3-0.47,32.64-0.35,48.91
			c0.14,19.3,0.45,38.61,0.26,57.91c-0.21,21.29,0.49,42.57,0.15,63.85c-0.12,7.41,0.15,7.5,7.54,7.43
			c10.98-0.1,21.99-0.86,32.91-0.73c15.13,0.18,30.28,1.07,45.4,0.62c29.44-0.89,58.87,0.73,88.31,0.11
			c2.78-0.06,5.72-0.46,8.12,1.61c0,75.65,0,151.3,0,226.95c-0.77,0.66-1.63,1.25-2.64,1.31c-8.95,0.5-17.91,0.55-26.86-0.03
			c-1.17-0.08-2.23-0.63-2.97-1.62c-1.52-3-0.3-5.84,0.57-8.68c3.09-10.01,6.51-19.92,9.34-30.02c1.89-6.77,0.89-10.01-4.83-14.26
			c-10.29-7.65-21.84-12.67-34.3-15.5c-7.21-1.63-9.47-0.31-12.47,6.44c-0.59,1.33-0.73,2.97-2.37,3.61
			c-4.61-3.49-8.64-1.84-12.46,1.46c-1.62,0.68-1.79,2.2-2.07,3.66c-0.11,0.46-0.27,0.89-0.47,1.31c-1.55,2.16-0.95,4.72-1.3,7.1
			c-3.45,14.55-6.87,29.1-10.37,43.64c-0.41,1.69-0.64,3.76-3.12,3.91c-5.59-1.36-11.29-0.56-16.93-0.83
			c-3.02-0.14-5.76-0.62-6.01-4.46c0.43-7.03,2.43-13.75,4.39-20.45c1.22-4.17,2.02-8.41,3.02-12.62c1.15-4.81-0.43-8.57-4.21-11.42
			c-11.9-8.98-25.42-14.5-39.81-17.84c-5.92-1.38-8.12,0.3-10.4,5.87c-0.55,1.35-0.59,3.01-2.23,3.7
			c-4.41-1.16-8.78-1.77-12.92,0.93c-2.11,0.47-2.94-1.18-3.79-2.49c-1.88-2.89-4.18-5.46-5.92-8.43c0.41-1.3-0.34-1.3-1.28-1.1
			c-1.76-0.67-2.19-1.93-1.68-3.64c0.82-4.16,0.74-8.27-0.46-12.34c-0.43-1.44-0.86-2.92-0.7-4.41c2.05-19.76-1.19-39.56-0.01-59.24
			c1.1-18.33-1.18-36.52-0.27-54.77c0.21-4.16-0.86-7.25-5.58-7.8c-3.02-1.94-1.84-4.72-1.17-7.16
			c3.27-11.82,6.44-23.67,10.08-35.38c1.18-3.8,2.29-7.61,3.17-11.5c1.09-4.78-0.44-8.42-4.09-11.45c-2.82-2.33-6.1-4-8.87-6.39
			c-3.19-3.35-7.57-4.45-11.65-6.12c-0.44-0.17-0.87-0.38-1.28-0.62c-6.13-3.53-13.01-4.62-19.81-5.74c-3-0.5-5.94,0.47-7.14,3.93
			c-1.14,2.22-1.87,4.73-4.18,6.15c-2.33,0.98-4.81,0.63-7.23,0.71c-2.26,0.07-4.09,0.94-5.6,2.56c-1.34,1-1.94,2.44-2.32,4.01
			c-0.16,0.46-0.36,0.89-0.58,1.32c-1.16,3.94-1.3,8.12-2.93,11.96c-0.64,1.51-0.76,3.26-2.52,4.05c-2.1-0.44-2.67-2.33-3.62-3.84
			c-2.37-3.8-4.75-7.59-7.31-11.28c-11.43-16.51-28.21-21.76-47.05-22.7c-21.12-1.05-41.75,1.92-62.01,7.82
			c-2.87,0.83-5.77,1.58-8.73,2.05c-1.13,0.13-2.24,0.37-3.37,0.53c-0.61,0.03-1.2-0.06-1.78-0.27c-2.22-1.57-1.42-3.92-1.42-5.97
			c-0.01-13.33,0.01-26.66-0.03-39.99c-0.05-20.12-0.71-40.23-1.01-60.34c-0.08-5.19,0.81-10.29,0.93-15.45
			c0.17-7.05-1.64-8.57-8.62-7.87c-10.97,1.1-21.94,1.11-32.91-0.06c-6.84-0.73-13.63,0.55-20.43,0.61
			c-14.96,0.12-29.94-0.41-44.89-0.47c-17.61-0.07-35.25-1.41-52.87,0.28c-6.63,0.64-13.25-1.03-19.94-0.69
			c-6.47,0.33-7.48,1.12-7.91,7.53c-0.09,1.33-0.07,2.66-0.07,4c0,55.65-0.02,111.29,0.04,166.94c0,3.3-1.12,7.28,3.4,8.96
			c3.07,2.12,1.02,4.45,0.1,6.58c-7.95,18.48-16.9,36.51-24.92,54.96c-9.74,22.42-19.13,44.97-27.57,67.92
			c-3.15,8.57-1.23,13.48,6.8,17.64c1.63,0.84,3.28,1.62,4.62,2.91c2.66,2.39,5.98,3.29,9.35,4.06c0.44,0.15,0.86,0.35,1.26,0.59
			c7.21,2.41,9.6,1.59,12.11-4.2c0.63-1.68,1.7-3.02,3.16-4.05c1.4-0.72,2.87-0.61,4.38-0.46c5.79,0.56,7.46-0.28,9.89-5.9
			c3.09-7.16,6.34-14.25,9.71-21.28c1.03-2.15,1.56-4.89,4.63-5.35c8.37-2.02,16.91-2.87,25.37-4.27
			c7.18-1.18,14.49-1.23,21.58-2.99c5.32-1.32,6.69-0.22,8.39,4.81c2.02,5.99,1.51,12.11,1.57,18.22
			c-0.13,4.15-0.64,8.33,0.94,12.35c0.18,0.44,0.32,0.91,0.44,1.37c0.5,1.9-0.02,4.11,1.71,5.65c0.78,0.87,1.66,1.63,2.52,2.41
			c4.34,2.88,9.17,4.72,14.29,4.48c6.39-0.29,12.74,2.03,19.12,0.14c0.79-0.24,1.6-0.35,2.19-0.99c2.75-1.91-0.17-5.45,2.13-7.49
			c2.89-1.01,5.89-0.53,8.84-0.62c5.39-0.17,6.42-1.11,7.5-6.48c0.68-3.41-0.19-6.96,1.02-10.3c1.41-2.03,2.78-0.62,3.54,0.41
			c3.33,4.47,7.37,8.25,11.35,12.09c0.81,2.34,2.66,3.65,4.71,4.77c4.45,2.44,7.99,6.16,12.33,8.78c0.96,0.58,1.76,1.65,0.39,2.79
			c-3.53,1.37-7.23,0.91-10.81,0.69c-7.3-0.45-13.37,1.53-17.96,7.43c-0.8,1.03-1.75,2-3.06,2.45c-3.46-1.06-6.04,0.62-8.62,2.62
			c-6.26,4.83-10.05,11.47-13.63,18.27c-15.29,29.04-29.25,58.72-42.9,88.55c-0.76,1.67-1.53,3.33-2.47,4.9
			c-0.98,1.44-1.84,2.94-2.2,4.68c-0.14,0.4-0.33,0.76-0.56,1.12c-0.83,0.93-1.23,2.07-1.51,3.26c-0.12,0.41-0.27,0.81-0.45,1.2
			c-0.72,1.4-1.07,2.92-1.38,4.45c-7,16.89-14.18,33.7-20.43,50.88c-1.47,4.03-2.93,8.02-3.31,12.45
			c-0.48,5.68,2.01,9.14,6.58,11.68c2.76,1.54,5.57,2.98,8.15,4.82c4.76,2.51,9.39,5.43,15.14,4.78c0.38-0.25,0.78-0.46,1.19-0.65
			c1.76-0.38,2.63-1.59,3-3.25c1.39-2.03,1.31-4.8,3.29-6.54c0.66-0.16,1.32-0.15,1.98-0.04c9.32,1.48,9.28,1.4,13.3-6.84
			c3.07-6.28,5.77-12.73,8.77-19.04c0.98-2.06,1.69-4.44,4.47-4.92c5.84-2.22,12.26-1.2,18.12-3.34c3.99-1.45,8.62,0.4,12.42-2.3
			c6.6-1.1,13.04-3.22,19.89-2.5c3.31,0.35,5.8,1.21,5.82,5.11c0.39,7.06-0.76,14.16,0.69,21.18c0.31,0.44,0.54,0.92,0.73,1.43
			c1.15,3.62-0.36,7.69,1.89,11.11c1.26,2.31,2.24,4.81,4.4,6.52c10.09,5.24,20.95,5.21,31.87,4.73c2.15-0.09,3.34-1.23,3.46-3.42
			c0.17-2.06,0.03-4.21,1.84-5.74c2.15-1.19,4.51-0.96,6.82-1.02c7.83-0.23,9.14-1.53,9.24-9.51c0.07-6.15,0.02-12.3,0.02-18.45
			c0-26.92-0.05-53.84,0.07-80.76c0.01-2.72-1.22-6.17,2.54-7.79c0.73,1.05,0.48,2.25,0.49,3.39c0.01,24.79,0.01,49.59,0,74.38
			c0,0.76,0.28,1.57,0.04,1.79c0-14.92,0.02-30.32-0.01-45.71c-0.02-14.61-0.15-29.21-0.77-43.83c-0.46-11.02,2.54-21.93,2.11-33.09
			c-0.21-5.44,3.48-6.39,8.45-2.72c4.5,3.14,6.98,8.3,11.41,11.52c4.49,5.08,9.77,3.47,15.06,1.78c2.61-0.98,5.66-0.19,8.05-2.05
			c0.52-0.24,1.06-0.39,1.62-0.49c2.83-0.3,5.66-0.15,8.48-0.16c3.37-0.02,5.41,1.36,5.44,4.97c-0.56,6.29-2.43,12.33-3.79,18.46
			c-3.34,15.05-5.12,30.39-8.7,45.38c-2.36,2.9-1.1,6.5-1.86,9.71c-0.11,0.51-0.29,0.99-0.51,1.46c-2.36,4.01-0.47,8.53-1.49,12.7
			c-0.1,0.52-0.26,1.02-0.45,1.51c-2.19,4.24-0.77,8.84-1.3,13.25c-0.09,0.83-0.3,1.62-0.62,2.39c-0.21,0.45-0.64,0.88-0.65,1.33
			c-0.39,11.35-3.79,22.49-2.43,33.97c0.08,0.68,0.42,1.24,0.81,1.78c1.01,1.08,2.03,2.17,2.66,3.53c2.58,3.73,6.64,4.9,10.67,6.12
			c0.44,0.17,0.86,0.39,1.26,0.63c5.77,1.39,11.04,4.56,17.13,4.8c2.84-0.46,6.04,1.23,8.5-1.43c2.11-2.54,0.98-6.18,2.99-8.75
			c2.38-0.55,4.62,0.32,6.91,0.64c4.95,0.68,7.22-0.61,8.47-5.48c1.54-5.96,2.51-12.05,3.75-18.08c5.8-28.23,12.4-56.27,19.41-84.22
			c4.3-17.12,8.47-34.27,12.91-51.35c0.52-2,0.38-4.45,2.9-5.43c10.5,0.93,20.78-1.54,31.19-1.97c4.83-0.2,4.96-4.15,6.75-6.87
			c1.43-0.86,2.85-0.86,4.27,0.04c1.93,2.69,1.5,5.76,1.07,8.68c-2.23,15.28-3.62,30.67-6.1,45.91c-2.2,4.65-1.61,9.68-1.95,14.58
			c-0.06,0.54-0.18,1.06-0.33,1.58c-1.29,4.86-1.36,9.88-1.9,14.84c-0.14,0.52-0.36,1.01-0.63,1.47c-2.08,5.13-0.3,10.53-1.09,15.74
			c-0.06,0.53-0.19,1.05-0.36,1.56c-2.21,3.58-1.23,7.64-1.66,11.48c-0.04,0.52-0.15,1.03-0.27,1.54c-1.2,3.95-1.58,8.03-1.93,12.11
			c-0.11,0.51-0.29,0.99-0.52,1.45c-2.22,3.75-0.61,7.94-1.32,11.86c-0.06,0.5-0.18,0.99-0.34,1.46c-1.33,2.43-1.61,5.09-1.71,7.79
			c-0.06,0.48-0.17,0.96-0.3,1.42c-1.81,5.57-2.93,11.11,0.55,16.51c1.01,1.56,2.23,2.82,4.1,3.3c0.45,0.19,0.87,0.43,1.28,0.69
			c4.95,2.68,9.93,5.23,15.81,4.92c5.48,1.12,10.85,2.83,16.55,2.6c0.99-0.04,1.96,0.41,1.91,1.74c-8.77,5.36-4.42,14.23-5.68,21.57
			c-0.35,2.07,0.34,4.32,0.08,6.46c-0.49,4.06,1.61,5.36,5.24,5.3c1.83-0.03,3.66,0.03,5.49,0.03c54.23,0,108.46-0.01,162.69,0.03
			c3.1,0,6.38-0.66,9.12,1.59c0,6,0,12,0,18c-2.72,2.27-6.01,1.64-9.12,1.64c-54.46,0.04-108.92,0.02-163.38,0.03
			c-10.42,0-9.78-0.6-9.78,9.78c-0.02,52.46,0,104.92-0.03,157.39c0,3.1,0.63,6.39-1.64,9.12c-6.33,0-12.66,0-19,0
			c-2.73-5.44-2.71-11.55-1.9-17.05c1.29-8.74-0.59-17.29,0.05-25.85c1.08-14.47-2.16-28.9,0-43.35c0.37-2.48,0.26-4.99,0.23-7.49
			c-0.19-17.65,0.06-35.29,1.02-52.91c0.46-8.35-0.73-16.62-1.27-24.91c-0.29-4.44-1.51-5.19-6.1-5.1
			c-20.31,0.41-40.62,0.47-60.93-0.08c-13.12-0.35-26.3,1.08-39.37,0.21c-15.79-1.05-31.55,0.21-47.34-0.44
			c-9.57-0.4-19.26,0.81-28.92,0.44c-2.8-0.11-3.68,1.91-4.29,4.05c-0.74,2.59-0.51,5.29-0.51,7.95c-0.01,51.97,0,103.93-0.03,155.9
			c0,2.94,0.57,6.06-1.59,8.63c-5.67,0-11.33,0-17,0c-2.07-2.4-1.63-5.33-1.64-8.12c-0.04-25.97,0.17-51.95-0.08-77.92
			c-0.23-24.45,0.3-48.9,0.08-73.36c-0.04-4.18-0.46-8.3-0.89-12.44c-0.31-3.04-1.62-4.54-4.73-4.44c-1.49,0.05-3-0.03-4.49-0.03
			c-55.94,0-111.88,0-167.83,0c-1.66,0-3.33,0.02-4.99,0.07c-2.83,0.08-4.22,1.55-4.5,4.3c-0.26,2.49-0.22,4.99-0.22,7.48
			c-0.01,51.78,0.01,103.56-0.03,155.34c0,3.1,0.63,6.39-1.63,9.11c-6,0-12,0-18,0c-2.26-2.73-1.61-6.02-1.61-9.13
			c-0.04-51.98-0.01-103.96-0.04-155.95c-0.01-10.36,1.4-14.98-12.34-11.49c-1.44,0.37-3,0.34-4.48,0.21
			c-18.96-1.74-37.93,1.16-56.88-0.01c-16.14-1-32.29,0.79-48.38-0.11c-20.14-1.13-40.26,1.3-60.37-0.33
			c-2.5-0.2-3.75,0.81-4.03,3.25c-0.24,2.16-0.19,4.33-0.2,6.49c0,52.65,0.01,105.3-0.03,157.95
			C181.68,1403.88,182.34,1407.17,180.08,1409.9z"/>
		<path class="st1" d="M90.1,724.05c22.99,0,45.99,0.14,68.97-0.09c8.18-0.08,8.67,0.76,8.66,8.58
			c-0.04,24.49-0.03,48.98-0.03,73.47c-0.01,121.46-0.04,242.92,0.05,364.37c0,5.66-0.96,7.81-7.73,7.53
			c-7.14-0.3-14.32,0.11-21.48,0.2c-1.62,1.48-3.66,1.43-5.63,1.44c-12.25,0.07-24.5,0.06-36.74,0.01
			c-2.15-0.01-4.34-0.02-6.08-1.62C90.1,1026.65,90.1,875.35,90.1,724.05z"/>
		<path class="st2" d="M989.9,797.04c-20.65,0-41.32,0.7-61.93-0.2c-20.28-0.89-40.52,1.6-60.71,0.09
			c-17.12-1.29-34.16,0.71-51.23,0.12c-1.5-0.05-3.09-0.29-4.48,0.12c-4.6,1.37-5.65-1.06-5.65-4.86c0-10.32,0-20.65,0-30.97
			c0-28.57,0-57.14,0-85.71c0-21.41,0.1-42.82-0.07-64.23c-0.03-4.1,1.1-5.49,5.32-5.34c12.11,0.42,24.29,0.93,36.35,0.72
			c23.44-0.42,46.88-0.55,70.33-0.62c20.07-0.06,40.15,0.01,60.22-0.03c3.99-0.01,7.96,0.03,11.87,0.96
			C989.9,670.4,989.9,733.72,989.9,797.04z"/>
		<path class="st3" d="M595.98,1409.9c0.01-55.8,0.01-111.6,0.02-167.41c0-1.66-0.14-3.36,0.11-4.99c0.75-4.82,2.78-5.82,7.5-5.76
			c7.78,0.11,15.62,1.04,23.37-0.62c3.84-0.82,7.58,0.4,11.36,0.78c5.84,0.59,11.6-1.21,17.36-0.87
			c12.45,0.73,24.96,1.71,37.34,0.62c8.09-0.71,16.26-0.45,24.13-0.19c19.3,0.65,38.58-0.09,57.86,0.42c1.48,0.04,3-0.07,4.45-0.34
			c5.09-0.95,7.25,0.52,7.38,5.73c0.25,10.26,1.78,20.49,1.02,30.77c-1.34,18.1-0.07,36.28-1.27,54.33
			c-0.71,10.69,0.52,21.19,0.28,31.77c-0.23,10.07-0.62,20.13,0.97,30.14c0.08,0.49,0.15,1.05-0.02,1.49
			c-3.09,7.94-0.17,16.1-0.91,24.12C723.29,1409.9,659.64,1409.9,595.98,1409.9z"/>
		<path class="st2" d="M388.03,1409.9c0.01-54.62,0.02-109.24,0.04-163.86c0-3-0.1-6,0.07-8.99c0.19-3.37,1.45-5.23,5.52-5.22
			c59.95,0.13,119.89,0.12,179.84,0.04c3.44,0,4.35,1.02,4.64,4.5c1.72,20.61,0.62,41.23,0.75,61.85
			c0.23,37.23,0.09,74.46,0.1,111.69C515.34,1409.9,451.68,1409.9,388.03,1409.9z"/>
		<path class="st3" d="M180.08,1409.9c0-57.48-0.01-114.96,0-172.44c0-6.52,0.65-6.31,7.1-5.85c10.44,0.76,20.97,0.88,31.42-0.12
			c4.99-0.47,9.85-0.44,14.84-0.03c11.62,0.97,23.3,0.89,34.91,0.04c5.02-0.37,9.88,0.19,14.79,0.19c16.62,0,33.26,1.21,49.87-0.62
			c4.22-0.46,8.55-0.33,12.9,0.51c5.74,1.11,11.56,0.23,17.26-1.17c3.78-0.93,6.44,1.13,6.83,5.03c0.11,1.16,0.03,2.33,0.03,3.5
			c0,56.98,0,113.96,0,170.94C306.71,1409.9,243.4,1409.9,180.08,1409.9z"/>
		<path class="st2" d="M805.94,1409.9c-0.01-57.58,0.02-115.16-0.11-172.74c-0.01-4.15,1.19-5.33,5.33-5.32
			c59.58,0.13,119.16,0.1,178.74,0.1c0,57.99-0.04,115.98,0.1,173.96c0.01,3.42-0.67,4.1-4.1,4.1
			C925.91,1409.87,865.93,1409.9,805.94,1409.9z"/>
		<path class="st4" d="M957.63,1022.1c0.8,2.4,2.83,1.83,4.57,1.83c9.24,0.04,18.47,0.04,27.71,0.06c0,63.32,0,126.64,0,189.96
			c-58.73-0.01-117.47-0.02-176.2-0.03c-8.17,0-8.06,0-7.85-7.97c0.17-6.75,0.17-13.52-0.02-20.28c-0.1-3.58,0.09-6.36,4.82-5.81
			c1.01,0.12,1.79-0.76,2.15-1.8c-0.02-0.25-0.03-0.49-0.05-0.74c-0.06-0.5-0.04-1,0.03-1.5c0.75-2.72,1.27-5.55,3.67-7.47
			c1.79-0.8,3.58-0.23,5.38-0.06c6.06,0.59,7.79-0.61,8.79-6.6c2.27-13.54,5.01-26.99,7.31-40.53c0.41-2.42,0.68-4.96,2.54-6.88
			c6.69-4.13,14.33-3.48,21.68-4.13c2.1-0.18,3.27,1.37,3.24,3.57c-0.06,3.48-0.02,6.96-1.08,10.35c-0.85,2.71-1.18,5.5-0.97,8.34
			c-0.41,7.45-2.13,14.73-3.24,22.08c-1.1,7.25,0.09,11.05,6.38,14.65c8.46,4.85,17.91,6.87,27.47,8.21
			c2.99,0.42,5.05-1.17,6.05-4.08c0.53-1.55,0.57-3.3,1.78-4.59c2.43-1.14,4.92-0.11,7.38-0.13c5.8-0.05,6.51-0.41,7.94-5.99
			c3.31-12.87,6.39-25.8,9.8-38.64c8.66-32.61,17.81-65.07,27.46-97.4C954.9,1024.72,955.02,1022.45,957.63,1022.1z"/>
		<path class="st2" d="M989.9,588.08c-59.08,0-118.16,0.01-177.24,0.01c-6.71,0-6.75-0.01-6.75-6.6c0-23.8,0.02-47.6,0.04-71.4
			c59.99,0,119.97,0.04,179.96-0.1c3.42-0.01,4.13,0.67,4.1,4.1C989.81,538.76,989.9,563.42,989.9,588.08z"/>
		<path class="st5" d="M90.1,1177.95c16.15-0.16,32.31-0.48,48.46,0.17c0.04,6.43,0.09,12.86,0.11,19.29
			c0.01,3.53-1.67,4.59-5.27,4.54c-14.43-0.2-28.86-0.03-43.29,0C90.1,1193.95,90.1,1185.95,90.1,1177.95z"/>
		<path class="st6" d="M387.12,962.08c8.43-11.11,19.26-11.04,31.35-7.32c14.14,4.35,28.43,8.23,41.78,14.75
			c8.88,4.33,11.12,9.24,8.19,18.66c-9.27,29.82-18.57,59.63-26.96,89.71c-7.55,27.05-15.64,53.95-22.06,81.31
			c-2.32,9.89-4.83,11.12-17.74,9.21c-10.13-0.11-18.75-3.82-25.47-11.35c-2.41-2.69-2.47-6.39-1.95-10
			c3.27-22.77,8.39-45.16,13.31-67.6c1.93-8.78,3.97-17.52,6.32-26c-6.44,12.06-13.44,24.07-19.84,36.4
			c-0.76,1.46-1.43,3.05-3.21,3.63c-9.36,15.09-16.83,31.18-24.81,47c-1.12,2.22-2.13,4.5-3.21,6.73
			c-3.98,8.24-4.95,8.72-13.87,7.03c-0.8-0.15-1.63-0.15-2.45-0.22c-0.43,0.17-0.87,0.22-1.33,0.16c-0.95-0.13-1.9-0.1-2.86-0.17
			c-3.33-0.42-6.47-1.52-9.64-2.52c-7.11-2.25-11.38-7.07-13.48-14.15c-3.22-10.85-5.81-21.87-8.14-32.93
			c-3.15-14.96-6.17-29.95-8.51-45.07c-0.33-2.15-0.53-4.28-0.5-6.36c-0.04,0.25-0.01,0.42-0.02,0.65
			c-1.86,15.25-5.48,30.15-7.56,45.3c-0.16,1.17-0.6,2.25-1.55,3.04c-3.34,13.01-4.52,26.39-6.59,39.61
			c-1,6.38-1.47,12.84-2.3,19.25c-1.11,8.63-3.69,10.42-12.33,8.71c-1.12-0.22-2.18-0.88-3.36-0.29c-3.91,0.12-7.36-1.76-11.09-2.49
			c-21.03-8.37-18.86-11.56-18.65-26.99c0.29-20.79,2.68-41.45,4.76-62.12c2.91-28.8,6.87-57.46,11.19-86.07
			c0.92-6.06,1.7-12.19,3.55-18.08c0.86-1.22,0.77-2.62,0.74-4.02c0.19-1.17,0.27-2.42,1.7-2.85c3.17-9.42,5.77-11.64,15.65-10.77
			c17.31,1.52,34.07,5.73,49.9,12.95c11.08,5.06,12.78,15.65,14.09,26.28c2.17,17.62,4.31,35.25,8.13,52.62
			c0.93,0.95,0.93,2.22,1.17,3.41c0.16,0.7,0.3,1.4,0.46,2.11c0.45,3.28,0.63,6.61,1.85,10.54c16.48-34.16,34.37-66.94,52.9-99.39
			c0.39-0.56,0.84-1.07,1.39-1.49C386.42,962.63,386.77,962.35,387.12,962.08z"/>
		<path class="st7" d="M394.17,796.18c-5.22,0.76-6.09,0.05-6.09-5.32c-0.02-58.43-0.01-116.87-0.02-175.3
			c0-1.84,0.44-3.61,0.68-5.4c0.41-3.18,1.96-4.15,5-4.09c7.46,0.17,15.01,1.06,22.34,0.66c9.81-0.53,19.63-0.99,29.36-0.41
			c11.06,0.65,22.06-0.57,33.17,0.47c12.3,1.16,24.82,0.64,37.21,0.1c6.45-0.28,12.99-1.42,19.36-0.6
			c8.82,1.12,17.59,0.57,26.38,0.7c3.79,0.06,7.6-0.44,11.37-0.92c3.64-0.46,5.22,1.4,5.73,4.61c0.23,1.47,0.45,3,0.27,4.46
			c-2.27,18.75,0.1,37.49,0.04,56.23c-0.07,21.23-0.06,42.47-0.26,63.7c-0.02,1.85,0.73,1.85,1.88,2.03
			c0.66,2.51-1.62,1.88-2.66,2.32c-5.6,2.36-11.41,4.22-16.87,6.96c-2.73,1.37-5.02,3.09-6.71,5.61c-3.83-0.23-6.45,3.17-10.14,3.42
			c-5.13,0.63-5.36,4.57-5.83,8.45c-1.06,8.72-0.81,17.51-1.38,26.26c-0.61,1.56-0.48,3.28-1.03,4.83
			c-1.02,2.84-3.15,4.24-6.12,3.96c-2.85-0.27-3.08-2.59-3.2-4.79c-0.08-1.33-0.31-2.62-0.66-3.89c-0.6-10.8,0.79-21.55,1.09-32.33
			c0.07-2.31,0.44-4.63,0.44-6.96c0-6.24-2.86-10.49-8.77-12.51c-20.76-7.09-41.92-11.84-64.05-10.91
			c-4.36,0.18-8.07,1.74-11.25,4.7c-1.7,1.58-3.22,3.39-5.35,4.44c-9.7,1.08-14.94,7.57-19.45,15.41
			c-7.48,13.01-13.85,26.58-20.71,39.91C397.08,793.66,396.66,795.9,394.17,796.18z"/>
		<path class="st6" d="M553.93,751.47c0.16-3.22,2.73-4.23,5.05-5.41c6.97-3.54,14.35-6.13,21.61-8.95c0.3,0.15,0.52,0.07,0.65-0.24
			c0.38-0.33,0.99-0.21,1.31-0.66c11.68-2.47,23.06-6.19,34.92-7.95c15.21-2.26,30.37-2.9,45.73-1.39
			c22.48,2.21,36.88,15.05,47.16,33.94c0.77,1.42,0.98,3.24,2.58,4.17c1.02,0.68,1.28,1.81,1.71,2.84c0.25,0.64,0.47,1.29,0.7,1.94
			c0.29,0.67,0.59,1.32,0.88,1.99c6.11,16.77,2.35,31.62-8.71,45.07c-0.47,0.54-0.96,1.08-1.41,1.64c-0.55,0.75-1.11,1.5-1.7,2.22
			c-0.28,0.37-0.6,0.71-0.92,1.05c-0.16,0.17-0.33,0.33-0.48,0.5c-7.72,7.85-16.68,14.11-25.9,20.01c-5.26,3.36-5.35,3.26-0.75,7.11
			c8.72,7.31,13.66,16.89,16.67,27.66c0.88,6.82,0.26,13.42-2.92,19.63c-7.78,12.49-19.37,20.56-31.86,27.65
			c-6.63,3.76-13.52,6.95-20.56,9.85c-13.57,5.4-27.47,9.7-41.76,12.74c-5.41,1.15-10.54,0.1-15.47-2.17
			c-3.01-1.38-5.9-3.02-9.11-3.95c-10.02-4.79-18.87-11.19-26.48-19.29c-4.6-4.89-6.4-10.53-5.85-17.33
			c1.64-20.05,3.18-40.11,5.53-60.09c1.98-16.85,3.95-33.7,5.26-50.61c0.91-11.76,2.66-23.46,2.7-35.29
			C552.51,755.84,552.36,753.46,553.93,751.47z"/>
		<path class="st6" d="M437.43,735.99c9.49-13.28,23.29-10.38,36.35-9.37c14.93,1.15,29.27,5.38,43.6,9.51
			c8.3,2.39,12.07,7.37,11.64,16.64c-0.5,10.78-1.31,21.55-1.94,32.32c-0.1,1.64,0.07,3.29,0.12,4.94
			c-0.03,11.58,0.72,23.12-0.22,34.75c-1.16,14.4-0.21,28.9-0.45,43.36c-0.14,8.64-0.34,17.28,0.03,25.92
			c0.19,8.11,0.08,16.21,0.06,24.32c0,2.15-0.02,4.33-1.54,6.12c-0.98,3.26-0.28,6.6-0.46,9.9c-0.39,7.25-1.81,8.72-8.93,8.89
			c-2.98,0.07-5.95,0.13-8.93,0.19c-13.14,3.92-26.54-4.29-28.44-17.4c-1.19-8.22-1.83-16.5-2.7-24.75
			c-0.6-5.76-0.98-6.37-6.58-5.71c-11.54,1.36-23.03,3.14-34.51,4.94c-6.89,1.08-13.76,2.32-20.57,3.76
			c-0.69,0.12-1.4,0.2-2.09,0.32c-0.96,0.21-1.94,0.36-2.84,0.78c-0.43,0.28-0.81,0.62-1.09,1.05c-0.15,0.3-0.33,0.59-0.5,0.89
			c-0.24,0.46-0.47,0.92-0.72,1.37c-0.2,0.3-0.46,0.52-0.79,0.66c-4.24,6.75-7.11,14.15-10.28,21.41
			c-5.15,11.81-5.09,11.83-17.55,11.21c-7.12-1.48-13.47-4.79-19.43-8.76c-4.72-3.14-6.72-7.77-5.43-13.44
			c2.44-10.76,6.96-20.82,11-31.01c13.99-35.29,29.93-69.72,46.25-103.98c7.52-15.78,15.5-31.31,24.2-46.47
			c0.43-0.6,0.93-1.13,1.55-1.53C436.63,736.52,437.02,736.24,437.43,735.99z"/>
		<path class="st6" d="M492.76,1136.88c-4.51,7.2-7.35,15.2-10.9,22.86c-5.11,11.02-5.59,11.31-17.32,8.35
			c-8.43-1.41-15.73-5.1-21.71-11.17c-2.61-2.65-3.19-6.04-2.52-9.74c1.24-6.94,3.91-13.41,6.45-19.9
			c10.97-28.03,23.04-55.59,35.58-82.96c9.56-20.87,19.59-41.49,30.03-61.93c2.95-5.77,6.11-11.43,9.31-17.07
			c0.3-0.42,0.65-0.78,1.04-1.12c0.41-0.32,0.87-0.52,1.38-0.61c6.47-9.15,15.41-12.22,26.26-10.89c2.06,0.25,4.25,0.75,6.32-0.21
			c0.9-0.62,1.89-0.56,2.89-0.4c0.95,0.19,1.87,0.52,2.86,0.54c1.69,0.12,3.38,0.02,5.07,0.22c0.48,0.05,0.96,0.16,1.43,0.28
			c1.85,0.71,3.84,0.57,5.75,0.91c0.52,0.08,1.01,0.21,1.51,0.38c9.81,1.09,19.05,4.5,28.41,7.28c10.47,3.12,12.46,6.74,12.84,20.54
			c0.02,2.01-0.04,4.01-0.44,6c-1.13,3.87-0.43,7.82-0.5,11.74c-0.04,1.97,0.03,3.95-0.88,5.78c-1.29,3.81-0.35,7.74-0.64,11.6
			c-0.34,11.5-1.9,22.93-1.98,34.45c-1.3,4.38-0.78,8.89-0.81,13.34c-0.2,31.28-0.27,62.56-0.37,93.84
			c-0.03,9.76-1.16,10.94-10.72,11.18c-2.31,0.06-4.62,0.21-6.93,0.32c-13.93,3.88-26.84-4.39-28.82-18.54
			c-1.18-8.4-1.64-16.89-2.67-25.31c-0.37-3.08-1.35-4.64-4.63-4.2c-19.13,2.51-38.34,4.52-57.2,8.85
			c-1.47,0.34-2.87,0.86-4.13,1.68c-0.37,0.31-0.76,0.62-1.12,0.93c-0.15,0.17-0.33,0.34-0.49,0.51
			C494.29,1135.2,493.97,1136.46,492.76,1136.88z"/>
		<path class="st6" d="M957.63,1022.1c-3.79,9-5.95,18.53-8.71,27.85c-9.5,32.12-18.1,64.48-26.61,96.88
			c-1.43,5.45-2.71,10.95-3.95,16.45c-1.48,6.53-1.97,7.01-8.65,6.69c-2.47-0.12-4.93-0.6-7.4-0.91
			c-10.16-0.33-19.13-3.63-26.45-10.85c-2.19-2.16-2.45-5.04-2.34-7.92c0.38-9.84,2.12-19.52,3.93-29.17
			c0.89-4.75,1.42-9.55,2.46-14.27c0.57-2.59-0.02-4.35-3.25-3.83c-10.68,1.72-21.5,2.48-32.03,5.04c-2.38,1.64-1.9,4.77-3.55,6.79
			c-4.12,15.03-5.8,30.53-8.69,45.8c-1.84,9.69-3.27,10.7-12.98,8.72c-1.1-0.23-2.28-0.11-3.42-0.15c-0.25,0.01-0.51,0.01-0.76,0.02
			c-1.05-0.05-2.09-0.17-3.13-0.33c-6.41-1.32-12.41-3.59-18.17-6.76c-6.7-3.69-9.34-9.08-8.26-16.55
			c1.05-7.25,2.77-14.37,3.93-21.6c4.89-30.39,8.45-60.94,12.11-91.49c2.45-20.46,4.44-41,7.82-61.35c0.22-1.32,0.34-2.66,1.55-3.53
			c4.05-11.72,6.17-12.88,18.22-9.11c11.89,3.72,23.44,8.27,33.74,15.48c6.75,4.73,7.95,7.49,6.09,15.58
			c-2.37,10.31-4.93,20.57-7.41,30.85c-0.35,12.2-4.92,23.6-6.7,35.54c-0.72,4.86-0.76,4.81,4.28,4.69
			c7.91-0.2,15.77-1.08,23.68-1.37c5.07-0.34,7.12-3.09,8.31-8.07c6.08-25.42,11.39-51.02,17.98-76.32c0.94-3.6,1.08-7.6,3.99-10.5
			c4.29-11.71,7.52-13.25,19.79-9.51c9.41,2.87,18.25,6.97,26.63,12.07c9.83,5.98,11.42,10.44,8.09,21.44
			C964.39,999.61,960.15,1010.6,957.63,1022.1z"/>
		<path class="st6" d="M304.11,785.89c-3.31,6.28-3.55,13.42-5.55,20.07c-1.44,4.77-2.31,9.73-3.94,14.43
			c-1.55,4.48,0.35,4.65,3.96,4.32c8.12-0.74,16.27-1.18,24.41-1.69c9.05-0.57,15.21,3.42,18.96,11.69
			c2.49,5.5,4.17,11.23,5.62,17.02c1.24,4.97-0.36,7.15-5.37,8.21c-3.9,0.83-7.84,1.46-11.76,2.18c-1.88,1.6-4.23,1.87-6.52,2.25
			c-11.33,1.87-22.54,4.41-33.85,6.42c-3.01,0.53-5.7,1.75-8.4,3.02c-4.61,20.84-9.23,41.67-13.82,62.52
			c-0.81,3.69-2.65,5.96-6.78,5.79c-3.14-0.13-6.29-0.01-9.44,0c-0.5,0.12-1,0.17-1.51,0.19c-0.8-0.03-1.6-0.13-2.39-0.26
			c-5.08-1.07-9.94-2.81-14.7-4.84c-9.79-4.18-13.22-9.89-12.25-20.39c1.87-20.41,5.56-40.58,8.51-60.84
			c4.17-28.67,9.09-57.23,10.43-86.24c0.27-5.81,0.95-11.61,0.9-17.44c-0.02-1.68,0.17-3.34,1.31-4.71c-0.76-5.4,1.96-7.23,7.01-8.3
			c33.98-7.21,68.36-10.68,103.01-12.21c9.58-0.42,15.87,3.48,20.39,11.42c4.01,7.04,6.68,14.48,7.26,22.61
			c0.42,5.95-1.3,8.11-7.27,9.13c-3.27,0.56-6.52,1.21-9.78,1.81c-1.47,1.33-3.31,1.38-5.13,1.6c-14.03,1.72-28.05,3.59-42.12,4.93
			C310.05,779.05,305.94,780.56,304.11,785.89z"/>
		<path class="st6" d="M749.79,1005.56c-3.31,12.82-6.65,25.62-9.92,38.45c-8.53,33.47-16.4,67.1-23.7,100.87
			c-1.26,5.84-2.33,11.72-3.43,17.59c-1.45,7.8-3.51,9.28-11.22,7.95c-1.95-0.34-3.9-0.72-5.85-1.08
			c-10.47-0.36-19.84-3.7-27.25-11.2c-3.38-3.41-3.11-8.27-2.72-12.82c3.75-44.2,11.74-87.75,20.6-131.15
			c0.91-4.47,0.5-4.91-4.09-4.44c-6.3,0.65-12.5,1.94-18.7,3.17c-6.8,1.34-12.48-0.54-17.38-5.28c-6.95-6.72-11.63-14.93-15.61-23.6
			c-0.31-0.66-0.58-1.34-0.86-2.01c-0.2-0.4-0.38-0.83-0.55-1.25c-0.28-0.61-0.55-1.23-0.82-1.85c-0.2-0.42-0.36-0.86-0.52-1.29
			c-0.28-0.69-0.58-1.37-0.83-2.07c-0.2-0.53-0.31-1.06-0.37-1.61c0.52-5.41,4.8-6.4,8.9-7.19c12.92-2.49,25.91-4.53,38.98-6.19
			c28.09-3.55,56.3-5.83,84.52-7.93c7.14-0.53,14.32-0.24,21.48-0.05c2.17,0.06,4.36,0.36,5.72,2.44c0.68,1.03,1.63,1.63,2.84,1.84
			l0.08,0.08c2.9,3.84,5.8,7.69,8.7,11.53c5.73,6.11,7.39,13.8,8.15,21.74c0.22,2.3-1.6,3.98-3.8,4.72
			c-3.29,1.11-6.63,2.18-10.19,1.25c-1.29-0.57-2.57-0.58-3.84,0.09c-7.2,2.84-14.93,1.88-22.35,3.17
			c-4.36,0.76-8.86,0.54-13.1,2.01c-0.87,0.54-1.34,1.35-1.61,2.32C750.82,1004.5,750.45,1005.14,749.79,1005.56z"/>
		<path class="st6" d="M733.83,739.97c1.03-1.97,2.05-3.94,3.08-5.92c2.13-3.67,5.54-4.36,9.35-3.83
			c6.85,0.96,13.37,3.04,19.67,5.88l-0.02-0.01c4.17,1.7,8.28,3.53,12.14,5.87c2.39,1.51,4.84,2.92,7.15,4.55
			c7.69,5.4,8.93,9.31,6.31,18.37c-4.48,15.46-8.88,30.94-13.29,46.42c-0.22,0.78-0.2,1.62-0.29,2.43c0.71,2.72-0.22,5.27-0.86,7.84
			c-7.87,31.28-15.47,62.63-22.23,94.17c-1.36,6.34-2.54,12.72-4.09,19.01c-2.23,9.05-5.79,11.21-14.85,9.13
			c-2.1-0.48-4.07-1.49-6.25-1.68c-6.32-1.56-12.45-3.57-18.2-6.72c-5.36-2.93-7.91-7.36-7.92-13.4c0-10.67,1.46-21.22,2.78-31.77
			c3.87-30.87,8.93-61.56,14.42-92.17c2.93-16.36,6.1-32.7,9.95-48.88c0.2-0.74,0.46-1.47,0.7-2.21c0.25-0.91,0.5-1.83,0.76-2.74
			c0.18-0.65,0.37-1.3,0.55-1.96C732.83,741.46,733.28,740.69,733.83,739.97z"/>
		<path class="st8" d="M730.55,941.38c3.21,0.61,6.42,1.26,9.64,1.83c5.22,0.93,7.65-1.81,8.68-6.55
			c3.45-15.88,6.74-31.81,10.47-47.62c5.93-25.16,11.23-50.48,18.58-75.3c8.07,0.75,7.94,0.75,8.11,9.29
			c0.2,10.11-0.48,20.21,0.77,30.34c0.93,7.54-0.46,15.22-0.69,22.82c-0.5,16.59,1.98,33.2,0.66,49.77
			c-0.66,8.33,1.28,16.33,1.13,24.5c-0.03,1.63,0.97,3.85-1.72,4.55c-14.08-2.64-28.13-0.49-42.18,0.36
			c-26.03,1.58-51.95,4.39-77.79,7.85c-11.32,1.52-22.71,2.9-33.8,5.88c-3.61,0.97-5.39,2.99-4.64,6.84
			c-3.8,1.73-7.78,3.07-11.33,5.33c-0.09-0.65-0.26-1.29-0.26-1.94c-0.01-9.78-2.8-13.64-12.38-16.41
			c-9.49-2.74-19.04-5.25-28.57-7.86c3.62-3.69,8.86-2.44,13.08-4.3c2.14-0.1,4.34,0.07,6.22-1.29c0.42-0.2,0.87-0.34,1.32-0.45
			c1.92-0.42,4.06,0.06,5.74-1.39c0.39-0.22,0.81-0.39,1.24-0.52c1.93-0.37,3.99-0.26,5.67-1.56c0.41-0.22,0.83-0.38,1.27-0.52
			c9.45-3.92,19.42-6.63,28.2-12.09c6.83-3.37,13.8-6.49,20.45-10.17c11.86-6.58,22.43-14.8,30.43-25.96
			c4.28,3.03,1.82,7.55,2.52,11.36c0.07,5.79-0.22,11.55-1.19,17.31c-1.65,9.81,1.71,15.36,11.05,18.84
			c6.36,2.37,12.87,4.3,19.46,5.9C728.05,951.98,730.38,949.86,730.55,941.38z"/>
		<path class="st9" d="M616.43,981.28c1.96-5.63,7.01-4.71,11.33-5.33c0.21,0.08,0.3,0.24,0.27,0.47c0.32,0.19,0.46,0.46,0.41,0.83
			c0.33,0.73,0.67,1.46,1,2.2l-0.17,0.32l0.21-0.29c0.3,0.67,0.6,1.35,0.9,2.02l0.02,0.04c5.02,8.4,8.94,17.45,16.13,24.49
			c5.24,5.13,10.84,7,18.11,5.24c6.77-1.63,13.78-2.23,20.64-3.48c2.96-0.54,4.1,0.14,3.38,3.25c-4.95,21.39-8.79,42.99-12.44,64.63
			c-4.07,24.11-7.34,48.32-9.46,72.68c-0.56,6.44,3.02,10.66,8.28,13.67c6.42,3.68,13.77,4.81,20.63,7.31
			c0.98,3.18-0.74,5.78-1.82,8.52c-3.28,2.15-6.94,0.65-10.4,1.09c-6-1.04-11.62-3.43-17.47-5h0c-4.34-1.28-8.17-3.54-11.8-6.16
			c-0.07-1.44-1.67-1.71-2.17-2.83c-2.12-5.77-1.52-11.88-0.77-17.59c0.93-7.13,1.11-14.37,2.68-21.42
			c0.04-0.64,0.08-1.28,0.12-1.91c1.83-4.52-0.07-9.55,1.94-14.05l0,0c1.64-2.41,0.8-5.14,1-7.73c0.16-2.11-0.41-4.34,1.04-6.23
			l0-0.01c1.91-3.12-0.09-6.97,1.87-10.08c1.66-9.64,3.18-19.3,5.01-28.91c2.22-11.7,4.71-23.34,7.08-35.01
			c1.36-5.01,1.35-5.21-3.46-4.95c-3.5,0.19-7.19-1.2-10.51,0.98l-0.01,0c-3.41,2.09-7.95-0.4-11.1,2.74
			c-4.56,0.23-9.29,1.27-12.97-2.71c-4.09-2.6-6.58-6.76-9.9-10.11c-1.95-1.99-3.42-4.37-5.13-6.56c-2.98-3.8-4.31-8.02-3.08-12.84
			C616.02,986.12,616.23,983.7,616.43,981.28z"/>
		<path class="st10" d="M603.02,948c-0.32,0.05-0.64,0.08-0.96,0.11c-1.72,1.62-4.39,0.09-6.08,1.83c-0.33,0.06-0.65,0.09-0.98,0.09
			c-1.75,1.42-4.24,0.49-6,1.87c-4.59,1.05-9.18,2.1-13.77,3.15c0,0-0.31,0.08-0.31,0.08l-0.29-0.14c-1.44-1.25-3.35,0.11-4.84-0.86
			c-0.78-0.1-1.55-0.2-2.33-0.3c-9.55-1.43-16.75-7.58-24.63-12.34c-1.69-1.02-3.37-2.13-4.77-3.58
			c-4.86-3.95-8.73-8.86-12.96-13.41c-0.92-10.27-0.3-20.54-0.06-30.82c1.35-5,0.97-10.24,1.16-15.24
			c0.83-22.44,5.64-44.46,6.4-66.88c0.2-5.81,1.57-11.51,2.96-17.16c1.91-9.47,1.51-19.12,1.84-28.69c0.2-5.77,1.67-9.99,7.64-11.64
			c3.07-0.5,5.29-3.94,8.9-2.62c-0.26,23.82-3,47.46-5.48,71.11c-2.91,27.78-6.28,55.51-7.99,83.41
			c-0.6,9.75,5.42,15.63,12.09,21.11c6.04,4.97,12.8,8.89,19.55,12.81c6.82,3.22,13.28,7.6,21.39,6.59
			c4.44-0.55,8.77-1.6,13.07-2.84c2.8-0.81,3.22-0.27,2.45,2.35l-0.03,0.01C607.27,947.5,604.71,946.44,603.02,948z"/>
		<path class="st9" d="M240.55,966.64c-0.35,1.52-0.7,3.05-1.04,4.57l-0.02,0.49c-3.28,21.5-7.05,42.94-9.73,64.52
			c-4.46,35.95-8.81,71.92-9.88,108.21c-0.28,9.39,3.04,15.27,11.71,18.42c2.33,0.85,4.53,2.04,6.8,3.07
			c0.47,0.52,1.14,0.64,1.76,0.86c8.67,2.96,8.73,3.13,3.83,11.08l-0.01,0.01c-2,1.74-4.62,1.58-6.56,0.82
			c-5.33-2.09-11.17-2.27-16.37-4.7l0,0c-3-1.33-6.29-2.02-8.98-4.04c-5.59-2.73-8.11-7.08-8.28-13.42
			c-0.46-17.51,1.37-34.93,2.88-52.28c1.54-17.66,3.85-35.29,5.78-52.94c0.41-3.77,1.82-7.42,1.65-11.3
			c1.74-2.49,0.69-5.32,0.96-7.99c0.21-2.04-0.51-4.22,1-6.05l0,0c1.58-3.86,0.14-8.21,1.92-12.04c2.07-14.28,3.36-28.71,8.07-42.47
			c1.4-4.09,7.94-7.61,12.32-7.15C239.97,964.48,240,965.72,240.55,966.64z"/>
		<path class="st10" d="M241.92,747.56c0.72,17.03-1.14,33.92-3.03,50.79c-3.98,35.54-10.36,70.74-15.31,106.15
			c-0.87,6.22-1.58,12.5-1.12,18.89c0.44,6.03,3.71,9.5,8.86,11.48c6.36,2.44,12.86,4.52,19.29,6.76l0.07-0.02
			c0.31,0.17,0.63,0.33,0.94,0.5c0.42,2.22-1.43,3.82-1.58,5.88c-0.66,0.68-1.32,1.35-1.97,2.03l0,0
			c-5.16,1.41-10.34,1.98-15.35-0.44c-2.14-1.03-4.73,0.18-6.64-1.6l0.02-0.02c-3.2-1.68-6.7-2.61-10.04-3.95l0,0
			c-1-1.38-3-0.69-4.05-1.94c-3.97-2.14-5.61-5.6-5.91-9.96c-0.67-9.66,1.41-19.06,2.64-28.53c0.98-7.52,2.27-15,3.42-22.49
			c0.38-7.34,2.64-14.39,3.21-21.76c0.34-4.41,1.39-9.01,2.49-13.45c1.91-14.78,4.39-29.51,5.58-44.35
			c1.21-15.02,3.4-30.06,2.33-45.18c-0.32-4.48,1.17-6.75,5.34-7.54C234.68,748.12,238.21,747.02,241.92,747.56z"/>
		<path class="st9" d="M791.94,996.19c2.33-1.52,5.11-1.29,7.67-1.68c4.02-0.61,5.38-2.7,4.95-6.45c-0.59-5.16-2.64-9.86-4.64-14.57
			c-0.71-1.67-1.43-3.34-2.14-5.02c4.08-3.14,9.17-3.47,13.3-0.86c-1.84,15.36-3.68,30.72-5.53,46.08
			c-2.28,18.99-4.45,38.01-6.89,56.98c-3.17,24.57-5.98,49.2-11.36,73.42c-1.9,8.55-0.11,12.47,7.46,16.94
			c6.28,3.71,13.31,5.11,20.09,7.32c0.26,0.13,0.48,0.3,0.67,0.51c0.15,0.12,0.3,0.24,0.47,0.34c-0.73,2.64-1.47,5.27-2.2,7.91
			c-0.25,0.19-0.45,0.43-0.59,0.71l-0.26,0c0,0-0.11,0.24-0.12,0.24c-6.56,1.84-12.6-0.91-18.81-2.16
			c-5.56-1.38-10.74-3.77-15.97-6.01l-0.02,0.01c-7.51-4.87-8.67-8.87-6.07-20.94c0.02-0.31,0.05-0.62,0.08-0.93
			c1.27-2.55,0.65-5.53,1.85-8.1c0.08-0.3,0.12-0.61,0.13-0.92c1.43-4.22-0.03-8.88,1.99-13l0,0c1.84-4.18,0.63-8.8,1.9-13.06
			c0.04-0.3,0.08-0.61,0.11-0.92c1.89-3.83,0.03-8.24,1.9-12.08c0.04-0.31,0.07-0.63,0.07-0.95c1.16-3.86,0.93-7.83,0.99-11.78
			c0.03-1.79-0.39-3.69,1.01-5.22l0-0.01c1.99-5.17,0.45-10.78,1.99-16l0,0c1.88-4.85,0.11-10.18,1.95-15.03
			c1.86-15.11,3.76-30.22,5.55-45.35C791.83,1002.49,791.79,999.33,791.94,996.19z"/>
		<path class="st9" d="M730.55,941.38c3.08,2.04,1.57,4.62,0.68,6.98c-0.85,2.26-2.22,3.76-5.13,3.74
			c-7.25-0.05-13.85-2.69-20.53-4.9c-3.24-1.08-6.48-2.27-9.6-3.94c-7.12-3.83-8.19-9.85-7.3-16.8c0.74-5.78,1.55-11.54,1.41-17.38
			c1.08-13.71,3.5-27.27,4.47-40.99c1.59-10.24,2.65-20.58,4.87-30.7c0.75-3.43,1-6.85,1.33-10.29c0.19-2.01,0.71-3.9,1.82-5.6
			c0.24-0.3,0.48-0.6,0.72-0.9c0,0,0.14-0.2,0.14-0.2c0.74-0.9,1.48-1.8,2.23-2.7c0,0,0.06-0.06,0.06-0.06
			c8.34-10.78,13.93-22.46,11.52-36.58c-0.61-3.55-1.83-7-2.77-10.5l0.08,0c-0.21-0.96-0.43-1.91-0.64-2.87
			c-1.52-2.47,0.44-4.48,1.17-6.45c1.58-4.28,1.45-8.88,2.99-13.13l0,0c1.25-1.05,0.53-3.07,1.97-4.03
			c3.09-6.43,8.92-3.7,13.81-4.12c-0.11,1.2-0.22,2.41-0.34,3.61l0.03,0c-0.35,1.33-0.71,2.66-1.06,3.99l0.08,0
			c-7.85,34.16-13.67,68.7-19.15,103.29c-3.59,22.63-6.85,45.32-8.47,68.22c-0.53,7.54,1.85,12.76,8.86,16.1
			C719.21,937.76,725.03,939.13,730.55,941.38z"/>
		<path class="st11" d="M437.43,735.99c-0.29,0.51-0.58,1.02-0.87,1.53l0-0.04c-30.84,56.72-57.42,115.39-80.16,175.81
			c-0.87,2.32-1.56,4.75-1.96,7.19c-0.78,4.81,0.61,8.71,4.89,11.62c4.86,3.31,10.2,5.56,15.54,7.84c1.21,0.52,2.62,0.64,3.25,2.05
			c-0.7,1.33-1.41,2.65-2.11,3.98c-4.67,5.59-7.36,6.36-13.94,3.99l-0.01,0c-3.21-1.64-6.78-2.38-10.01-3.99
			c-2.9-1.45-5.86-2.8-8.69-4.39c-4.67-2.63-6.8-9.79-4.48-15.9c5.89-15.49,11.6-31.07,18.06-46.33
			c8.65-20.42,17.81-40.63,27.05-60.8c3.41-7.45,7.06-14.8,10.18-22.39c6.6-12.74,13.13-25.52,19.83-38.22
			c2.92-5.53,5.5-11.33,10.03-15.81C427.71,738.51,431.6,735.07,437.43,735.99z"/>
		<path class="st12" d="M523.65,964.41c-30.56,56.19-56.77,114.37-79.61,174.09c-0.36,0.93-0.66,1.88-0.98,2.83
			c-3.48,10.53-2.08,14.57,7.58,20.07c4.45,2.53,9.24,4.47,13.88,6.68c0.08,2.34-0.85,4.29-2.35,6.02
			c-1.32,1.35-2.51,2.85-4.15,3.86l0,0c-3.74,1.67-6.72-1.5-10.24-1.71c-1.81-0.11-4.03-1.09-5.8-2.29
			c-5.28-1.9-9.9-4.95-14.31-8.32c-2.43-1.86-2.55-10.85-0.83-15.59c7.09-19.61,15.12-38.84,23.28-58.02
			c1.19-1.09,1.12-2.78,1.91-4.06l0,0c1.33-1.04,0.68-3,1.89-4.09l0,0c1.68-1.24,0.73-3.57,2.03-4.96
			c8.13-19.2,17.29-37.93,26.22-56.76c7.46-15.74,15.38-31.25,23.96-46.41c3.09-5.46,7.43-9.93,13.3-12.65
			c1.67-0.77,3.32-1.83,4.64,0.48c-0.1,0.3-0.25,0.57-0.45,0.8L523.65,964.41z"/>
		<path class="st13" d="M370.85,1093.49c7.31-15.23,15.93-29.72,24.15-44.44c0.39,0.15,0.78,0.31,1.17,0.46
			c-1.83,7.49-3.74,14.96-5.47,22.47c-5.83,25.26-11.39,50.59-15.25,76.24c-0.86,5.75,1.72,9.86,6.67,12.82
			c6.1,3.65,12.95,5.12,19.55,7.36c0.16,5.93-2.64,11.19-12.63,9.52c-5.03-1.24-10.17-2.04-15.01-4c-4.14-2.52-9.41-3.26-12.23-7.82
			c-0.41-0.87-1.12-1.49-1.82-2.11l-0.01-0.02c-1.32-4.67-1.6-9.33,0.13-13.97l0,0.01c2.15-3.07-0.3-7.01,1.93-10.06l0,0
			c1.35-3.54,0-7.57,2-10.99l0-0.01c1.87-3.44,0.56-7.47,2.04-10.98C368.27,1109.94,369.89,1101.78,370.85,1093.49z"/>
		<path class="st9" d="M283,1051.03c4.02,28.58,9.71,56.81,17.13,84.72c2.57,9.68,9.07,14.1,18.1,16.1c2.26,0.5,4.5,1.13,6.75,1.69
			l0.4-0.07c0.37,0.18,0.74,0.37,1.12,0.55c-3.67,10.71-5.54,10.99-14.25,8.87c-5.58-1.36-11.21-2.39-16.68-4.34
			c-6.14-2.19-9.48-6.58-11.06-12.28c-3.34-12.05-6.95-24.04-8.85-36.46c-0.41-2.69-1.8-5.23-2.73-7.83
			c1.46-15.34,4.96-30.35,7.53-45.51c0.25-1.47,0.48-2.94,0.72-4.41C281.6,1051.38,281.84,1050.4,283,1051.03z"/>
		<path class="st14" d="M411.54,903.65c12.5-3.49,25.36-4.99,38.15-6.86c7.72-1.13,15.47-1.98,23.18-3.17
			c2.97-0.46,4.04,0.18,4.18,3.41c0.46,10.29,1.54,20.53,2.92,30.74c0.86,6.4,3.85,10.64,10.19,12.69
			c5.43,1.76,10.93,2.69,16.59,3.03c1.59,2.39,0.96,4.52-0.77,6.51c-3.25,1.58-6.8,1.56-10.21,1.35c-3.32-0.21-6.64-0.35-9.96-0.33
			c-6.41,0.03-12.28-1.78-17.74-5.06c-1.13-0.2-1.81-0.85-2.05-1.97c-1.77-1.63-0.37-4.31-1.99-5.99l0,0
			c-1.96-4.14,0.05-8.88-1.97-13.01c-0.44-6.6,0-13.25-1.7-19.79c-0.67-2.59-1.78-3.24-4.09-2.9c-11.6,1.69-23.21,3.4-34.81,5.05
			c-5.16,0.74-10.34,1.37-15.51,2.05c0.02-0.28,0.09-0.54,0.23-0.78l0.36-0.32l-0.1-0.47c0.4-0.75,0.79-1.49,1.19-2.24l0.05,0.05
			c0.6-2.02,2.46-1.55,3.88-1.96L411.54,903.65z"/>
		<path class="st15" d="M494.59,1133.05c0.4-2.47,2.59-2.3,4.24-2.72c16.62-4.22,33.66-5.96,50.59-8.39
			c0.49-0.07,0.99-0.09,1.49-0.12c4.23-0.24,9.71-3.38,12.25-0.7c2.34,2.46,1.22,8.18,1.68,12.45c0.77,7.1,1.56,14.2,2.38,21.3
			c0.72,6.17,3.71,10.33,9.9,12.37c5.58,1.84,11.28,2.58,17.04,3.25c-0.06,1.82-0.12,3.64-0.19,5.45c-1.49,2.29-3.54,3.15-6.31,3.05
			c-4.96-0.18-9.98,0.4-14.88-0.17c-5.79-0.67-11.34-2.65-16.72-4.95c-2.57-1.14-3.32-3.53-4.09-5.91
			c-1.83-3.81-0.2-8.19-1.98-12.01l0-0.01c-1.95-3.6-0.57-7.51-1-11.25c-0.41-3.57,0.97-7.32-0.99-10.75
			c0.21-3.51-1.52-4.28-4.85-4.36c-6.87-0.17-13.32,2.55-20.14,2.38c-0.84,0.55-1.77,0.91-2.77,0.92
			c-8.14,0.14-16.03,1.94-23.97,3.44c-1.63,0.31-3.11,0.1-2.27-2.25l0.11-0.21C494.38,1133.66,494.54,1133.39,494.59,1133.05z"/>
		<path class="st16" d="M913.26,964.37c-3.82,15.97-7.66,31.94-11.46,47.92c-3.26,13.72-6.76,27.39-9.55,41.21
			c-0.98,4.84-2.7,7.14-7.67,6.69c-1.13-0.1-2.3,0.28-3.45,0.44c0.62,0.25-0.16-0.1,0.5-0.01c0.42,0.06,0.35-0.07-0.23-0.11
			c-5.73-0.36-6.28-0.88-5.02-6.56c1.75-7.92,3.83-15.77,5.5-23.72c0.34-1.59,0.67-3.28,2.21-4.3c1.85-7.14,3.76-14.27,5.53-21.44
			c2.18-8.8,4.24-17.64,6.36-26.46c1.67-2.07,0.26-4.99,1.93-7.06c0.01-0.3,0.06-0.6,0.13-0.89c1.22-1.07,0.52-3.07,1.96-4.03
			c2.72-3.4,6.31-4.21,10.49-3.82C912.08,962.39,912.79,963.05,913.26,964.37z"/>
		<path class="st17" d="M386.45,963.49c-18.9,33.93-37.92,67.81-54.72,103.68c-2.7-5-1.93-10.08-3.2-14.67l0.1,0
			c-0.11-1.59-0.21-3.18-0.32-4.77c7.32-9.81,11.78-21.21,17.72-31.79c7.66-13.64,14.77-27.61,22.79-41.04
			c3.99-6.68,8.85-13.35,18.29-12.82c-0.21,0.44-0.42,0.89-0.63,1.33L386.45,963.49z"/>
		<path class="st18" d="M884.08,1025.93c-2.15,9.89-4.01,19.86-6.6,29.63c-1.09,4.11,0.28,4.96,3.67,5.07
			c-8.59,0.67-17.16,1.29-25.72,2.02c-2.51,0.21-3.43-0.68-2.85-3.14c3.06-13.04,6.1-26.08,9.16-39.11c0.04,2.65,1.24,3.72,4.01,3.6
			c4.79-0.2,9.59-0.05,14.39-0.05C881.77,1023.95,883.53,1023.71,884.08,1025.93z"/>
		<path class="st19" d="M304.11,785.89c0.01-5.08,1.67-7.82,7.61-8.35c15.33-1.36,30.58-3.6,45.86-5.44c1.63-0.2,3.3-0.06,4.95-0.08
			c-0.15,1.35-0.3,2.7-0.45,4.06c-0.73,0.59-1.35,1.31-2.12,1.85c-0.29,0.1-0.58,0.15-0.89,0.15c-6.29,1.06-12.42,2.76-18.9,3.1
			c-8.08,0.43-16.1,1.86-24.15,2.81C312.02,784.45,307.83,783.72,304.11,785.89z"/>
		<path class="st20" d="M749.79,1005.56c0.22-1.16,0.44-2.31,0.67-3.47l0.07-0.15c0.06-1.54,0.8-2.57,2.37-2.68
			c11.75-0.83,23.39-2.94,35.2-2.98c-0.36,6.92-0.91,7.39-7.89,7.75c-8.39,0.43-16.65,2.39-25.11,2.12
			C753.31,1006.08,751.46,1006.64,749.79,1005.56z"/>
		<path class="st21" d="M281.66,873.8c0.22-1.86,1.22-3,3.08-3.36c15.21-2.9,30.26-6.63,45.69-8.33c1.31,3.59,0.33,5.54-3.71,6.19
			c-2.55,0.41-4.93,1.87-7.65,1.75c-1.46,1.01-3.14,1.04-4.8,0.95c-5.68-0.34-10.82,2.27-16.33,2.88c-4.37-0.47-8.2,2.05-12.46,2.24
			C283.62,876.2,281.74,876.55,281.66,873.8z"/>
		<path class="st22" d="M615.81,988.54c-0.65,7.1,4.25,11.79,7.52,17.17c0.45,0.74,0.78,1.38,0.7,2.22c-0.6-0.22-1.27-0.35-1.8-0.68
			c-1.42-0.87-2.05-3.46-4.27-2.46c-2.15,0.97-2.17,3.2-1.99,5.23c1.2,14.07-2.51,27.85-2.21,41.94
			c0.55,25.61,0.15,51.24,0.14,76.86c0,1.64,0,3.27-0.9,4.91c0-27.31,0-54.63,0-81.94c-0.28-11.67,0.29-23.32,1.11-34.95
			c1.09-3.58-0.37-7.35,0.83-10.92C614.81,1000.12,614.51,994.29,615.81,988.54z"/>
		<path class="st23" d="M468.08,945.95c2.91-0.87,4.95,1.52,7.35,2.27c10.12,3.16,20.38,1.26,30.56,1.77
			c-2.1,3.77-6.24,3.03-9.01,2.72c-7.76-0.87-15.84,0.62-23.31-2.73C471.52,949.01,468.81,948.87,468.08,945.95z"/>
		<path class="st8" d="M538.05,937.91c5.91,1.71,9.99,6.58,15.61,8.89c4.76,1.96,9.21,4.67,13.79,7.04
			c-2.15,0.47-4.21,0.24-6.16-0.79l-0.35,0.36l-0.33-0.37c-1.37,0.24-2.69,0.11-3.94-0.54c-5.86-2.44-9.7-7.84-15.42-10.55
			C539.78,941.24,538.09,940.07,538.05,937.91z"/>
		<path class="st24" d="M316.02,783.99c1.02-2.07,2.96-1.79,4.77-1.89c4.41-0.25,8.85-1.14,13.1-1.47
			c8.42-0.64,16.74-2.25,25.18-2.55c-3.41,3.85-8.55,2.84-12.54,3.22C336.38,782.28,326.36,785.26,316.02,783.99z"/>
		<path class="st25" d="M556.07,1173.88c4.15-0.77,7.65,1.68,11.32,2.73c7.59,2.17,15.11,1.1,22.66,1.08c1.31,0,2.62-1.14,3.93-1.75
			c-0.01,2.79-1.9,3.75-4.19,3.9c-11.08,0.74-22.03,0.37-32.48-4.05C556.37,1175.4,556.13,1174.74,556.07,1173.88z"/>
		<path class="st26" d="M653.92,1125.93c1.02,7.03-1.63,13.74-1.83,20.65c-0.18,6.12-0.06,12.24-0.07,18.36
			c-2.11-0.91-2.1-2.8-2.06-4.64c0.13-6.6-0.27-13.2,1.46-19.75c0.83-3.13,0.46-6.58,0.6-9.89
			C652.08,1128.84,651.88,1126.94,653.92,1125.93z"/>
		<path class="st27" d="M494,1134.09c0.38,1.42,1.13,1.45,2.55,1.18c7.78-1.49,15.52-3.39,23.52-3.41c0.98,0,1.96,0.08,2.94,0.12
			c-0.46,0.93-1.14,1.86-2.18,1.8c-5-0.28-9.7,1.27-14.53,2.06c-3.33,0.55-6.84-0.22-9.99,1.84c-0.75,0.49-2.9,1.73-3.55-0.8
			C492.97,1135.86,492.95,1134.74,494,1134.09z"/>
		<path class="st28" d="M217.85,845.87c-1.04,11.87-2.01,23.76-5.7,35.21c-0.67-8.81,2-17.21,3.2-25.78
			c0.27-1.95,0.48-3.92,0.69-5.88C216.2,848,215.76,846.29,217.85,845.87z"/>
		<path class="st29" d="M765.92,736.11c-5.38-1.54-10.72-3.2-16.13-4.59c-4.62-1.18-9.16-1.21-12.88,2.53
			c0.3-2.77,2.26-4.16,4.62-4.33C750.33,729.1,758.54,731.11,765.92,736.11z"/>
		<path class="st30" d="M771.93,1148.95c0.04,0.66,0.21,1.34,0.11,1.98c-1.26,7.35-0.1,13.93,5.97,18.97
			c-5.24,0.43-6.97-3.99-7.74-7.3C769.24,1158.2,768.75,1153.16,771.93,1148.95z"/>
		<path class="st31" d="M226.09,947.98c7.39,0,14.48,3.26,21.99,2.04c-0.07,1.13-0.6,1.82-1.78,1.95c-6.8,0.79-13.33-0.5-19.72-2.65
			C226.29,949.23,226.24,948.44,226.09,947.98z"/>
		<path class="st32" d="M221.04,1173.99c4.74-0.8,8.89,1.86,13.34,2.67c3.2,0.58,6.38,0.9,9.59,1.21c0.02,1.89-1.34,2.19-2.68,2.02
			C234.24,1178.97,227.13,1178.21,221.04,1173.99z"/>
		<path class="st33" d="M548,1133.96c2.13,0.28,1.86,1.92,1.87,3.37c0.05,6.21,0.09,12.42,0.13,18.63
			c-1.82-0.19-1.84-1.52-1.85-2.88C548.1,1146.7,548.05,1140.33,548,1133.96z"/>
		<path class="st34" d="M297.94,873.88c3.65-3.19,8.55-2.09,12.74-3.6c2.5-0.9,5.57-0.21,8.39-0.23c-0.59,0.55-1.21,1.62-1.75,1.58
			C310.7,871.16,304.61,875.06,297.94,873.88z"/>
		<path class="st35" d="M658,1018.02c0.23-2.19,1.92-1.9,3.38-1.96c2.49-0.1,4.99-0.15,7.48-0.26c1.62-0.07,3.58-0.88,4.55,0.9
			c1.07,1.98,0.19,3.84-1.45,5.29c0.2-3.05-1.04-4.37-4.26-4.09C664.5,1018.17,661.24,1018,658,1018.02z"/>
		<path class="st36" d="M665.98,1173.94c6.01-0.11,11.36,2.55,16.99,4.04c0.53,0.53,1.55,0.81,0.98,1.9
			C677.63,1178.9,671.43,1177.57,665.98,1173.94z"/>
		<path class="st26" d="M718.04,748.12c0.91,7.01-2.44,13.12-4.16,19.58c-1.01-0.66-0.95-1.7-0.95-2.71
			c0.54-4.88,3.5-9.21,3.18-14.3C716.04,749.44,716.77,748.49,718.04,748.12z"/>
		<path class="st37" d="M778.03,1169.88c5.86,0.59,10.96,3.16,15.97,6.01C787.81,1176.2,782.5,1174.14,778.03,1169.88z"/>
		<path class="st38" d="M441.99,1173.97c5.35,1.33,10.69,2.67,16.04,4c-0.1,0.85-0.38,1.86-1.34,1.71
			C451.39,1178.86,446.26,1177.51,441.99,1173.97z"/>
		<path class="st39" d="M362.07,949.97c5.2,0.61,10.09,0.1,13.94-3.99C373.61,952.72,366.44,954.78,362.07,949.97z"/>
		<path class="st40" d="M633.93,1018.06c4.05,2.37,8.49,1.91,12.89,1.82c1.15-0.52,2.29-0.87,3.33,0.24
			C644.97,1023.74,636.87,1022.71,633.93,1018.06z"/>
		<path class="st32" d="M243.98,1177.86c3.83-6.65,0.68-10.03-5.6-11.94c3.53,0.5,6.94,1.33,9.96,3.34
			C247.66,1172.52,248.2,1176.4,243.98,1177.86z"/>
		<path class="st30" d="M781.97,1082c-0.04,5.74,0.78,11.58-2,17c0.02-4.73,0.04-9.46,0.05-14.19
			C780.03,1083.41,780.2,1082.16,781.97,1082z"/>
		<path class="st41" d="M374.05,1173.93c5.34,0.08,10.36,1.34,15.01,4C383.59,1178.33,378.39,1177.75,374.05,1173.93z"/>
		<path class="st42" d="M216.06,1025.98c-0.04,3.71-0.08,7.43-0.13,11.14c-0.02,1.34-0.08,2.65-1.83,2.9
			c0.02-3.73,0.05-7.46,0.06-11.2C214.17,1027.45,214.3,1026.17,216.06,1025.98z"/>
		<path class="st26" d="M658.01,1096.01c-0.69,4.65,1.66,9.75-2.04,13.96C656.59,1105.3,654.25,1100.21,658.01,1096.01z"/>
		<path class="st30" d="M783.96,1065.99c-0.04,4.1-0.08,8.2-0.13,12.3c-0.02,1.53-0.24,2.97-1.86,3.7
			C781.68,1076.54,781.89,1071.15,783.96,1065.99z"/>
		<path class="st30" d="M785.92,1050.96c-0.17,5.07,1.17,10.34-1.95,15.03C784.03,1060.91,782.84,1055.65,785.92,1050.96z"/>
		<path class="st43" d="M360.12,1150.02c-0.04,4.66-0.09,9.31-0.13,13.97C357.03,1159.3,357.01,1154.64,360.12,1150.02z"/>
		<path class="st36" d="M654.18,1167.78c4.38,1.21,8.04,3.78,11.8,6.16C660.9,1174.08,657.25,1171.48,654.18,1167.78z"/>
		<path class="st26" d="M655.97,1109.97c-0.01,4.77,0.87,9.66-1.94,14.05C654.28,1119.28,652.53,1114.26,655.97,1109.97z"/>
		<path class="st44" d="M462.07,924.97c3.62,3.89,1.4,8.66,1.97,13.01C461.04,934,462.12,929.4,462.07,924.97z"/>
		<path class="st45" d="M352.05,945.99c3.97-0.26,7.32,1.03,10.01,3.99C358.04,950.37,354.71,949.01,352.05,945.99z"/>
		<path class="st46" d="M683.95,1179.88c-0.33-0.63-0.65-1.27-0.98-1.9c3.62-0.04,7.25-0.09,10.87-0.13
			C691.35,1182.43,687.26,1179.24,683.95,1179.88z"/>
		<path class="st30" d="M779.89,1099.94c-0.16,4.1,1.21,8.44-1.9,12.08C778.12,1107.91,776.72,1103.57,779.89,1099.94z"/>
		<path class="st47" d="M216.06,944.01c3.96-0.25,7.37,0.92,10.04,3.95C222.33,947.72,218.82,946.83,216.06,944.01z"/>
		<path class="st30" d="M777.89,1112.93c-0.4,4.39,1.74,9.14-1.9,13.06C775.58,1121.49,776.07,1117.11,777.89,1112.93z"/>
		<path class="st30" d="M775.98,1125.99c0.24,4.47-0.05,8.87-1.99,13C774.49,1134.64,772.14,1129.84,775.98,1125.99z"/>
		<path class="st35" d="M650.14,1020.12c-1.11-0.08-2.22-0.16-3.33-0.24c3.28-3.3,7.39-1.64,11.18-1.85
			C656.03,1021.16,652.78,1019.5,650.14,1020.12z"/>
		<path class="st29" d="M778.04,741.97c-4.35-1.33-8.39-3.29-12.14-5.87C770.49,736.93,774.81,738.32,778.04,741.97z"/>
		<path class="st33" d="M550,1155.96c2.74,3.66,1.88,7.91,1.98,12.01C548.68,1164.4,550.13,1160.05,550,1155.96z"/>
		<path class="st42" d="M217.98,1013.94c0.31,4.16,0.37,8.29-1.92,12.04C216.38,1021.92,214.45,1017.49,217.98,1013.94z"/>
		<path class="st43" d="M362.04,1139.97c-0.54,3.38,1.67,7.27-1.93,10.06C360.44,1146.61,358.49,1142.76,362.04,1139.97z"/>
		<path class="st26" d="M659.89,1085.91c0.02,3.48,0.94,7.13-1.87,10.08C658.53,1092.61,656.05,1088.67,659.89,1085.91z"/>
		<path class="st32" d="M212.06,1169.95c3.51,0.19,6.42,1.73,8.98,4.04C217.36,1174.18,214.09,1173.45,212.06,1169.95z"/>
		<path class="st43" d="M364.04,1128.98c0.32,3.84-0.31,7.51-2,10.99C362.53,1136.27,360.27,1132.07,364.04,1128.98z"/>
		<path class="st43" d="M366.09,1117.99c-0.52,3.69,1.54,7.86-2.04,10.98C363.8,1125.13,363.95,1121.38,366.09,1117.99z"/>
		<path class="st30" d="M773.86,1139.92c0.24,2.9,0.52,5.8-1.85,8.1C771.75,1145.12,771.4,1142.2,773.86,1139.92z"/>
		<path class="st38" d="M458.03,1177.97c0.55-2.18,1.93-3.48,4.15-3.86C462.41,1177.13,461.07,1178.46,458.03,1177.97z"/>
		<path class="st48" d="M897.9,970.98c-0.08,2.51,0.93,5.31-1.93,7.06C895.94,975.5,895.1,972.74,897.9,970.98z"/>
		<path class="st44" d="M464.05,937.98c2.56,1.37,1.82,3.83,1.99,5.99C462.57,942.91,464.38,940.09,464.05,937.98z"/>
		<path class="st49" d="M455.97,1078.93c-0.29,1.82,1.22,4.37-2.03,4.96C453.75,1081.89,453.88,1080.01,455.97,1078.93z"/>
		<path class="st49" d="M453.93,1083.9c0.12,1.71,0.68,3.62-1.89,4.09C452,1086.32,451.54,1084.45,453.93,1083.9z"/>
		<path class="st26" d="M720.02,744.09c-0.05,1.64,0.45,3.55-1.97,4.03C717.96,746.41,717.33,744.44,720.02,744.09z"/>
		<path class="st47" d="M212.01,942.06c1.65,0.02,3.69-0.76,4.05,1.94C214.37,944.07,212.41,944.69,212.01,942.06z"/>
		<path class="st48" d="M899.98,966.06c-0.06,1.63,0.55,3.59-1.96,4.03C898.03,968.43,897.18,966.36,899.98,966.06z"/>
		<path class="st49" d="M452.04,1087.99c0.02,1.66,0.61,3.59-1.91,4.06C449.94,1090.31,450.59,1088.96,452.04,1087.99z"/>
		<path class="st24" d="M359.96,777.93c0.06-1.36,0.87-1.86,2.12-1.85C362.17,777.61,361.46,778.23,359.96,777.93z"/>
		<path class="st43" d="M359.99,1164.01c1.4,0.02,1.94,0.77,1.82,2.11C360.42,1166.09,359.79,1165.41,359.99,1164.01z"/>
		<path class="st31" d="M248.07,950.02c-0.12-1.43,0.62-2.03,1.97-2.03C250.24,949.49,249.62,950.2,248.07,950.02z"/>
		<path class="st7" d="M582.56,736.21c-0.16,0.77-0.6,0.99-1.31,0.66C581.46,736.21,581.93,736.05,582.56,736.21z"/>
		<path class="st8" d="M789,956.86c0.08-0.12,0.16-0.23,0.25-0.35c-0.05,0.14-0.11,0.28-0.16,0.43
			C789.08,956.94,789,956.86,789,956.86z"/>
		<path class="st50" d="M842.78,1107.25c8.82-3.17,18.22-2.99,27.28-4.74c1.46-0.28,2.98-0.31,4.46-0.53
			c7.93-1.18,8.12-1.16,6.6,6.89c-2.42,12.89-4.68,25.8-6.32,38.81c-0.85,6.78,0.6,9.99,6.55,13.66c6.47,3.99,13.93,5.25,20.95,7.72
			c-1.95,10.29-2.84,11.03-13.25,9.02c-7.93-1.54-15.86-3.31-22.98-7.42c-7.22-4.17-8.69-7.41-7.42-15.54
			c1.15-7.36,2.22-14.74,3.33-22.11c1.33-6.29,2.52-12.59,3.09-19.01c0.24-2.65-0.53-3.91-3.18-3.48
			c-4.73,0.78-9.57,0.28-14.29,1.51C842.41,1113.38,842.18,1113,842.78,1107.25z"/>
		<path class="st51" d="M842.78,1107.25c-0.46,3.59,0.55,5.24,4.6,4.12c5.11-1.41,10.43-1.42,15.7-1.8
			c1.68-0.12,3.27-0.28,3.01,1.89c-0.84,7.27-0.97,14.7-4.11,21.55c-0.99-6.22,2.37-11.89,2.23-18.07c-0.07-3.18-0.45-3.9-3.77-3.46
			c-6.52,0.86-13.14,0.94-19.37,3.37C841.2,1112.21,841.15,1109.54,842.78,1107.25z"/>
		<path class="st0" d="M813.18,1177.82c0.2-0.24,0.4-0.48,0.59-0.71C813.58,1177.35,813.38,1177.59,813.18,1177.82z"/>
		<path class="st52" d="M283,1051.03c-0.61,0.35-1.21,0.69-1.82,1.04c-0.15-1.41-0.7-3.19,1.25-3.54
			C283.12,1048.41,283.34,1050.03,283,1051.03z"/>
		<path class="st0" d="M239.49,971.7l-0.17-0.3c0,0,0.19-0.2,0.19-0.19c0.06,0.17,0.13,0.33,0.19,0.5
			C239.63,971.7,239.56,971.7,239.49,971.7z"/>
		<path class="st0" d="M325.39,1153.48c-0.07,0.41-0.18,0.6-0.4,0.07C325.06,1153.11,325.18,1153.04,325.39,1153.48z"/>
		<path class="st0" d="M328.63,1052.5c0,0-0.1,0-0.1,0S328.63,1052.5,328.63,1052.5z"/>
		<polygon class="st0" points="386.45,963.49 386.29,963.32 386.5,963.41 386.67,963.56 		"/>
		<path class="st53" d="M536.05,794.14c-1.8,17.49-3.84,34.96-5.3,52.47c-0.81,9.75-2.29,19.41-3.15,29.15
			c-0.52,5.93-1.14,12.03-2.57,17.92c-0.13-1.81-0.36-3.62-0.37-5.42c-0.12-30.12,0.34-60.24,1.68-90.34
			c0.12-2.64,0.57-5.26,0.87-7.89c0.99,1.11,0.61,2.49,0.79,3.77c0.22,1.62-0.69,4.15,2.21,4.03c2.38-0.1,4.55-1.02,4.74-4.02
			c0.08-1.3-0.15-2.67,0.75-3.8C537.08,791.29,536.56,792.71,536.05,794.14z"/>
		<path class="st54" d="M536.05,794.14c-0.12-1.37-0.23-2.75-0.35-4.12c0.42-8.89,0.83-17.78,1.26-26.67
			c0.33-6.89,2.09-8.89,8.07-9.26c-7.82,3.23-6.78,10.13-7,16.61C537.75,778.54,538.22,786.45,536.05,794.14z"/>
		<path class="st55" d="M609.95,803.58c0.95-6.32,2.34-12.52,4.93-18.39c9.36-4.52,19.3-5.06,29.43-4.33
			c0.51,0.09,1.01,0.26,1.48,0.48c1.06,0.66,2.08,1.39,3.28,1.82c3.53,2.83,3.61,6.37,2.11,10.23c-0.74,1.46-1.54,2.89-2.32,4.33
			c-0.22,0.39-0.49,0.76-0.78,1.11c-1.59,2.4-3.38,4.67-5.17,6.93c-0.26,0.36-0.56,0.69-0.88,1.01c-1.64,1.5-3.33,2.96-5.32,4
			c-1.05,0.48-1.91,1.22-2.73,2.04c-0.39,0.35-0.8,0.64-1.23,0.91c-4.98,3.17-10.55,3.79-16.25,3.67c-6.07-0.13-8.12-2.44-7.32-8.44
			C609.41,807.17,609.16,805.29,609.95,803.58z"/>
		<path class="st56" d="M618.56,895.14c-9.03,5.37-18.9,8.57-29,11.2c-2.92,0.76-2.7-0.69-2.31-2.54
			c2.21-10.51,4.44-21.02,6.66-31.52c6.27,0.16,12.53-0.46,18.82,0.27c4.99,0.59,9.98,1.48,11.97,6.51
			c2.11,5.33-0.08,10.07-4.41,13.72C619.5,893.44,618.92,894.19,618.56,895.14z"/>
		<path class="st57" d="M702.56,821.5c0.26,9.43-2.44,18.45-3.78,27.65c-0.91,6.29-1.9,12.57-2.86,18.86
			c-1.99,2.34,0.24,6.82-4.04,8c-2.49-6.53-5.06-13.05-9.46-18.57c-1.96-2.46-4.21-4.74-6.59-6.79c-6.14-5.29-6.15-5.14,1.03-9.6
			C686.05,835.36,694.4,828.54,702.56,821.5z"/>
		<path class="st58" d="M618.56,895.14c-1.26-2.14,0.66-2.89,1.75-4c3.23-3.33,5.21-7.51,3.23-11.73
			c-1.79-3.81-5.93-5.33-10.29-5.42c-4.77-0.1-9.51-1.33-14.33-0.23c-1.75,0.4-3.68,0.18-5-1.48c0.06-1.92,0.37-3.47,2.71-4.09
			c10.61-2.82,21.23-5.32,32.32-3.29c0.65,0.12,1.32,0.13,1.96,0.29c10.9,2.69,12.92,9.15,5.34,17.42
			C631.27,888.03,625.28,892.12,618.56,895.14z"/>
		<path class="st59" d="M650.02,794.13c1.15-3.76,2.09-7.47-1.93-10.26c-0.82-0.46-1.41-1.23-2.22-1.7l-0.02-0.01
			c-6.63-1.81-13.24-1.94-19.85,0.1c-0.63,0.2,0.2,0.03-0.43,0.25c-1.62,0.56-3.67,1.1-4.43-0.7c-0.83-1.98,1.65-1.94,2.71-2.75
			l0.21-0.1c1.55-0.64,3.43-0.41,4.68-1.82c6.99-2.79,14.33-4.11,21.75-4.9c2.6-0.28,5.34-0.06,7.93,0.4
			c9.33,1.68,11.3,5.99,6.69,14.4c-2.58,4.69-5.89,8.81-10.22,12.04c-1.77,1.13-3.22,2.64-4.73,4.06l-0.11,0.08
			c-0.38,0.15-0.71,0.39-0.96,0.71l-0.21,0.21c-0.28,0.25-0.56,0.5-0.84,0.75l-0.25,0.16c-0.87,0.71-1.9,1.22-2.72,2l-0.1,0.06
			c-3.08,1.49-3.24,1.43-3.13-1.2l0.01-0.01c2.41-2.34,4.9-4.62,6.1-7.89h0C649.35,797.1,649.13,795.32,650.02,794.13z"/>
		<path class="st60" d="M609.95,803.58c0.24,12.48,0.24,12.24,13.09,11.87c4.17-0.12,7.16-2.63,10.87-3.46
			c0.81,0.49,0.93,1.22,0.72,2.07c-8.53,5.96-18.2,9.48-27.83,13.12c-3.07,1.16-2.7-0.68-2.27-2.4
			C606.28,817.7,608.13,810.64,609.95,803.58z"/>
		<path class="st61" d="M609.01,946.02c0.57-3.7-2.05-1.69-2.99-1.4c-4.76,1.48-9.54,2.48-14.56,2.51
			c-7.42,0.05-13.63-2.9-19.37-7.22c1.66-0.38,2.91,0.67,4.12,1.41c9.06,5.54,18.44,5,28.27,2.33c11.34-3.07,22.33-7.14,33.49-10.72
			c0.16,0.06,0.34,0.08,0.46,0.19c0.21,0.19,0.38,0.43,0.57,0.66c-2.1,1.24-4.1,2.71-6.32,3.68c-6.53,2.86-13.12,5.58-19.75,8.21
			C611.76,946.14,610.33,945.92,609.01,946.02z"/>
		<path class="st62" d="M691.89,876.02c2.73-1.97,0.71-6.34,4.04-8.01c0.6,4.55-0.44,8.93-1.65,13.24c-0.95,3.41-0.2,7.2-1.03,10.14
			c-1.66,5.86,0.27,12.28-3.18,17.69c-0.83-4.05,1-8.37-1.22-12.28C692.14,890.21,692.19,883.14,691.89,876.02z"/>
		<path class="st63" d="M623.86,779.07c-0.06,1.34-2.14,0.95-2.04,3.17c6.21-2.82,12.65-2.23,19.03-2.16c1.9,0.02,4.1-0.45,5,2.08
			c-8.53-0.51-16.94,0.12-25.35,1.75c-1.88,0.37-3.24,3.5-5.62,1.26C615.51,779.67,620.36,780.36,623.86,779.07z"/>
		<path class="st64" d="M634.63,814.06c-0.24-0.69-0.48-1.38-0.72-2.07c0,0,0.02-0.02,0.02-0.02c0.59-0.72,1.25-1.39,1.98-1.97
			c2.24-0.98,3.39-3.55,5.94-4.08c0.21,2.56,2.16,0.61,3.13,1.2c-0.51,1.14-1.56,1.62-2.6,2.13l-0.07,0.05
			c-0.57,0.37-1.13,0.74-1.7,1.1c0,0-0.18,0.13-0.18,0.13c-0.55,0.3-1.09,0.61-1.64,0.91c-0.15,0.12-0.3,0.24-0.46,0.36
			c-0.08,0.32-0.28,0.48-0.61,0.5c-0.14,0.1-0.29,0.2-0.43,0.29c-0.45,0.22-0.9,0.43-1.35,0.65c-0.29,0.17-0.57,0.34-0.85,0.51
			C635.05,814.03,634.89,814.13,634.63,814.06z"/>
		<path class="st64" d="M650.17,803.15c0.88-2.16,2.32-3.69,4.73-4.06C653.82,801.02,652.27,802.4,650.17,803.15z"/>
		<path class="st63" d="M628.76,777.15c-0.89,2.33-2.82,1.99-4.68,1.82C625.31,777.52,627.01,777.27,628.76,777.15z"/>
		<path class="st64" d="M645.08,807.06c0.36-1.4,1.25-2.11,2.72-2C647.27,806.25,646.51,807.11,645.08,807.06z"/>
		<path class="st60" d="M635.08,813.76c0.29-0.17,0.57-0.34,0.85-0.51C635.88,813.79,635.58,813.94,635.08,813.76z"/>
		<polygon class="st60" points="637.29,812.6 637.39,812.27 637.73,812.3 637.65,812.68 		"/>
		<path class="st60" d="M638.33,811.8l0.09-0.36c0,0,0.38-0.01,0.37,0c0,0-0.06,0.39-0.06,0.39L638.33,811.8z"/>
		<path class="st0" d="M714.53,770.56c0,0-0.07,0-0.08,0S714.53,770.56,714.53,770.56z"/>
		<polygon class="st60" points="640.43,810.53 640.42,810.33 640.61,810.4 640.65,810.67 		"/>
		<polygon class="st60" points="642.31,809.3 642.38,809.25 642.45,809.46 		"/>
		<path class="st64" d="M648.05,804.9c0.01-0.55,0.28-0.82,0.84-0.75C648.95,804.79,648.71,805.08,648.05,804.9z"/>
		<path class="st64" d="M649.1,803.94c0.03-0.63,0.37-0.84,0.96-0.71C650.03,803.86,649.69,804.08,649.1,803.94z"/>
		<polygon class="st57" points="705.71,817.65 705.81,817.8 705.65,817.7 705.49,817.53 		"/>
		<polygon class="st57" points="703.43,820.41 703.55,820.66 703.28,820.61 703.13,820.33 		"/>
		<path class="st65" d="M456.81,808.37c0.2-0.62,0.4-1.24,0.6-1.86l0-0.02c5.12-9.62,10.25-19.24,15.43-28.96
			c1.7,1.21,1.05,2.65,1.06,3.85c0.13,22.47,0.13,44.94,0.38,67.41c0.04,3.7-0.66,5.58-4.8,5.42c-3.47-0.13-6.96,0.4-10.44,0.64
			c-2.25-1.44-2.5-3.72-2.57-6.08c-0.3-11.21,0.58-22.44-0.91-33.62C455.25,812.84,456.21,810.6,456.81,808.37z"/>
		<path class="st66" d="M456.81,808.37c1.12,13.6,1.05,27.23,1.16,40.86c0.02,1.94-0.43,3.97,1.07,5.62
			c-7.86,1.04-15.71,2.14-23.57,3.1c-2.14,0.26-5.08,0.47-3.18-3.16C440.4,839.28,447.6,823.29,456.81,808.37z"/>
		<path class="st0" d="M406.44,907.82c0.04,0.23,0.1,0.45,0.11,0.68c0,0.03-0.24,0.07-0.37,0.11
			C406.27,908.34,406.35,908.08,406.44,907.82z"/>
		<polygon class="st66" points="457.41,806.5 457.58,806.56 457.41,806.52 457.25,806.46 		"/>
		<path class="st0" d="M407.67,905.63c0,0-0.04-0.05-0.04-0.05C407.63,905.58,407.67,905.63,407.67,905.63z"/>
		<polygon class="st7" points="436.55,737.49 436.44,737.41 436.56,737.52 		"/>
		<polygon class="st0" points="411.54,903.65 411.55,903.68 411.46,903.54 		"/>
		<path class="st67" d="M543.69,1035.73c4.58-10.83,11.04-20.66,16.28-31.36c1.78,1.47,1.07,3.05,1.08,4.4
			c0.13,21.59,0.18,43.17,0.29,64.76c0.04,6.95,0.09,6.95-6.59,7.57c-0.83,0.08-1.65,0.17-2.48,0.26c-7.27,0.21-8.22-0.24-8.54-7.44
			c-0.46-10.45-1.83-20.86-1.32-31.36C542.53,1040.22,543.1,1037.98,543.69,1035.73z"/>
		<path class="st68" d="M543.69,1035.73c0.44,11.22,0.88,22.44,1.32,33.66c0.07,1.82,0.34,3.65,0.22,5.45
			c-0.35,5.21,1.92,7.41,7.07,6.52c-9.99,1.16-19.97,2.31-29.93,3.49c-2.84,0.34-4.37-0.27-2.73-3.45
			C527.52,1066.12,534.72,1050.46,543.69,1035.73z"/>
		<path class="st0" d="M614.94,1005.95c-0.28,3.64,1.07,7.4-0.83,10.92C614.03,1013.2,613.83,1009.52,614.94,1005.95z"/>
		<path class="st8" d="M569.78,954.14c1.72-0.31,3.42-0.46,4.84,0.86C572.89,955.39,571.23,955.34,569.78,954.14z"/>
		<path class="st0" d="M560.63,953.03c0.23-0.04,0.46-0.03,0.68,0.02c-0.14,0.17-0.28,0.33-0.42,0.5
			C560.8,953.38,560.71,953.21,560.63,953.03z"/>
		<path class="st0" d="M523.65,964.41c-0.01,0,0.14,0.08,0.14,0.08S523.65,964.41,523.65,964.41z"/>
		<path class="st27" d="M494.59,1133.05c0.26,0.53-0.01,0.74-0.49,0.83C493.91,1133.39,494.01,1133.07,494.59,1133.05z"/>
		<path class="st4" d="M815.5,1168.87c-0.39,0.05-0.91,0.25-0.67-0.52C815.32,1168.19,815.67,1168.2,815.5,1168.87z"/>
		<polygon class="st0" points="250.69,941.6 250.62,941.83 250.61,941.62 250.65,941.37 		"/>
		<polygon class="st0" points="750.52,1001.94 750.6,1002.13 750.45,1002.09 750.34,1001.87 		"/>
		<path class="st8" d="M628.44,977.25c-0.75,0.02-0.54-0.43-0.41-0.84C628.63,976.47,628.72,976.77,628.44,977.25z"/>
		<polygon class="st8" points="629.48,979.47 629.33,979.57 629.44,979.44 629.61,979.33 		"/>
		<polygon class="st8" points="630.39,981.52 630.24,981.57 630.37,981.48 630.57,981.42 		"/>
		<path class="st0" d="M732.53,747.57c0,0-0.08,0-0.08,0S732.53,747.57,732.53,747.57z"/>
		<path class="st0" d="M733.52,743.59c0,0-0.03,0-0.03,0S733.52,743.59,733.52,743.59z"/>
		<path class="st61" d="M595.98,949.95c1.18-3.44,3.97-1.49,6.08-1.83C600.85,951.46,598.08,949.6,595.98,949.95z"/>
		<path class="st61" d="M588.99,951.91c1.38-2.62,3.8-1.89,6-1.87C593.59,952.57,591.17,951.86,588.99,951.91z"/>
		<path class="st61" d="M603.02,948c1.31-2.72,3.75-2,5.96-1.97C607.63,948.59,605.26,948.11,603.02,948z"/>
		<path class="st64" d="M647.96,798.02c0.21,4.36-2.71,6.31-6.1,7.89C643.2,802.74,645.4,800.24,647.96,798.02z"/>
		<path class="st64" d="M650.02,794.13c-0.04,1.64,0.58,3.63-2.06,3.89C647.79,796.27,648.75,795.12,650.02,794.13z"/>
		<path class="st63" d="M645.87,782.18c1.41-0.31,2.14,0.27,2.22,1.7C646.78,784.06,645.91,783.67,645.87,782.18z"/>
		<path class="st60" d="M635.91,809.99c-0.29,1.03-0.92,1.71-1.98,1.97C633.95,810.67,634.6,810,635.91,809.99z"/>
	</g>
</g>
</svg>
